<?xml version="1.0" encoding="utf-8"?>
<!-- Generator: Adobe Illustrator 23.1.1, SVG Export Plug-In . SVG Version: 6.00 Build 0)  -->
<svg version="1.1" id="Etiquetas" xmlns="http://www.w3.org/2000/svg" xmlns:xlink="http://www.w3.org/1999/xlink" x="0px" y="0px"
	 width="1040px" height="281.9px" viewBox="0 0 1040 281.9" style="enable-background:new 0 0 1040 281.9;" xml:space="preserve" preserveAspectRatio="xMidYMid slice">
<style type="text/css">
	.st0{fill:#3B5999;}
	.st1{opacity:0.15;}
	.st2{fill:#FFFFFF;}
	.st3{fill:#DD4B39;}
	.st4{opacity:0.15;fill-rule:evenodd;clip-rule:evenodd;}
	.st5{fill-rule:evenodd;clip-rule:evenodd;fill:#FFFFFF;}
	.st6{fill:#33B6E4;}
	.st7{opacity:0.15;fill:#010202;}
	.st8{fill:#407CA9;}
	.st9{fill:#F04E23;}
	.st10{fill:#D5E6F7;}
	.st11{fill-rule:evenodd;clip-rule:evenodd;fill:#4E4E4E;}
	.st12{fill-rule:evenodd;clip-rule:evenodd;}
	.st13{fill:#F04923;}
	.st14{fill:#4574BA;}
	.st15{fill:#010101;}
	.st16{fill:#DEDEDD;}
	.st17{fill:#16552A;}
	.st18{fill:#3A475A;}
	.st19{fill:#B72A90;}
	.st20{fill:#CC181E;}
	.st21{fill:#009BDB;}
	.st22{fill:#006192;}
	.st23{fill:#AA1017;}
	.st24{fill:#F94877;}
	.st25{fill:#E58D00;}
	.st26{fill:#1F8453;}
	.st27{fill:none;}
	.st28{fill:#EAECED;}
	.st29{fill:#597FFA;}
	.st30{fill:#7BD668;}
	.st31{fill:#E6E7E7;}
	.st32{fill:#3465B0;}
	.st33{fill:#ED1384;}
	.st34{fill:#F27A03;}
	.st35{fill:#FFC51A;}
	.st36{fill:#00E676;}
	.st37{fill:url(#SVGID_1_);}
</style>
<g>
	<path class="st0" d="M20,0c11,0,20,8.9,20,20c0,11-9,20-20,20C8.9,40,0,31,0,20C0,8.9,8.9,0,20,0z"/>
	<path class="st1" d="M39.9,22.2L25.4,7.8l-7.5,7.5l0.5,0.4L14.1,20l3.5,3.5L17.1,24l3.8,3.8l-4.4,4.4l7.5,7.5
		C32.4,37.9,38.9,30.9,39.9,22.2z"/>
	<path class="st2" d="M16.5,12.6v3.3h-2.4V20h2.4v12.2h5V20h3.4c0,0,0.3-2,0.5-4.1h-3.8v-2.8c0-0.4,0.6-1,1.1-1h2.8V7.8h-3.7
		C16.4,7.8,16.5,11.9,16.5,12.6z"/>
</g>
<g>
	<circle class="st3" cx="100" cy="20" r="20"/>
	<path class="st4" d="M101.8,39.9c9.6-0.9,17.3-8.6,18.1-18.2l-7.2-7.2l0,0l-4.4-4.4l-0.7,0.7v4.8l-5.5-5.5l-0.7,0.2L96,10.6
		L93.5,11L92.3,13l0.7,4.2l3.4,1.7l0.1,0.4l0.6,2.7l-0.7,0.2l-2.5,0.4L92.3,23l-1.8,2.6l0.9,1.3l-1.3,1.3L101.8,39.9z"/>
	<path class="st5" d="M96.2,18.4c-1.6-0.1-3.1-1.8-3.4-3.9c-0.3-2.1,0.8-3.7,2.4-3.6c1.6,0,3.1,1.7,3.3,3.8
		C98.8,16.8,97.7,18.5,96.2,18.4z M99.9,25.1c0,0.2,0.1,0.4,0.1,0.6c0,1.8-1.2,3.2-4.5,3.2c-2.4,0-4.1-1.5-4.1-3.3
		c0-1.8,2.1-3.2,4.5-3.2c0.6,0,1.1,0.1,1.5,0.2C98.8,23.6,99.7,24.1,99.9,25.1z M102.1,10.1h-6.1c-2.7,0-5.3,2.1-5.3,4.5
		c0,2.5,1.9,4.5,4.7,4.5l0.6,0c-0.2,0.3-0.3,0.7-0.3,1.1c0,0.7,0.4,1.2,0.8,1.7l-1.1,0c-3.4,0-6,2.2-6,4.4c0,2.2,2.9,3.6,6.3,3.6
		c3.9,0,6-2.2,6-4.4c0-1.8-0.5-2.8-2.1-4c-0.6-0.4-1.6-1.4-1.6-1.9c0-0.7,0.2-1,1.2-1.8c1-0.8,1.7-1.9,1.7-3.2c0-1.5-0.7-3-2-3.5
		h1.9L102.1,10.1z"/>
	<polygon class="st2" points="108.3,14.4 108.3,10.1 106.9,10.1 106.9,14.4 102.5,14.4 102.5,15.9 106.9,15.9 106.9,20.4 
		108.3,20.4 108.3,15.9 112.7,15.9 112.7,14.4 	"/>
</g>
<g>
	<circle class="st6" cx="60" cy="20" r="20"/>
	<path class="st7" d="M79.8,22.9l-9.5-11.3l-7.5,7.5l-1,4.6l-5.8-3.9l2,6.1l-8.8,0.9L60.3,40c2.6,0,5.3-0.7,7-1.4
		C75.9,35.2,79.4,27.1,79.8,22.9z"/>
	<path class="st2" d="M49.2,26.8c1.9,1.2,4.3,2,6.8,2c4.1,0,7.3-1.7,9.4-4.1c2.1-2.4,3.2-5.6,3.2-8.6v-0.6c0.9-0.7,1.7-1.5,2.2-2.3
		c-0.8,0.3-1.6,0.5-2.6,0.7c0.9-0.6,1.6-1.4,2-2.4c-0.9,0.4-1.9,0.9-2.9,1.1c-0.8-0.9-1.9-1.4-3.2-1.4c-2.4,0-4.4,2-4.4,4.5
		c0,0.2,0.1,0.6,0.1,1c-3.7-0.2-6.9-1.9-9.2-4.7c-0.4,0.7-0.6,1.4-0.6,2.2c0,1.7,0.6,2.9,1.9,3.7c-0.8,0-1.4-0.2-2-0.5v0.1
		c0,2.2,1.5,3.9,3.5,4.4c-0.3,0.1-0.7,0.1-1.2,0.1c-0.2,0-0.4-0.1-0.8-0.1c0.5,1.8,2.1,3.1,4.1,3.1c-1.6,1.2-3.4,1.9-5.5,1.9H49.2
		L49.2,26.8z"/>
	<path class="st2" d="M49.2,66.8c1.9,1.2,4.3,2,6.8,2c4.1,0,7.3-1.7,9.4-4.1c2.1-2.4,3.2-5.6,3.2-8.6v-0.6c0.9-0.7,1.7-1.5,2.2-2.3
		c-0.8,0.3-1.6,0.5-2.6,0.7c0.9-0.6,1.6-1.4,2-2.4c-0.9,0.4-1.9,0.9-2.9,1.1c-0.8-0.9-1.9-1.4-3.2-1.4c-2.4,0-4.4,2-4.4,4.5
		c0,0.2,0.1,0.6,0.1,1c-3.7-0.2-6.9-1.9-9.2-4.7c-0.4,0.7-0.6,1.4-0.6,2.2c0,1.7,0.6,2.9,1.9,3.7c-0.8,0-1.4-0.2-2-0.5v0.1
		c0,2.2,1.5,3.9,3.5,4.4c-0.3,0.1-0.7,0.1-1.2,0.1c-0.2,0-0.4-0.1-0.8-0.1c0.5,1.8,2.1,3.1,4.1,3.1c-1.6,1.2-3.4,1.9-5.5,1.9H49.2
		L49.2,66.8z"/>
</g>
<g>
	<circle class="st8" cx="300" cy="20" r="20"/>
	<path class="st1" d="M319.8,22.8l-7.3-7.3h-11L297,11l-1.6,1.6l-1.6-1.6l-2.6,2.6l1.9,1.9h-6.5v9.2L302,39.9
		C311.2,39,318.5,31.8,319.8,22.8z"/>
	<path class="st5" d="M310.1,22.4h-2v-4.5h2V22.4z M312.4,15.6h-6.8v6.7v2.4h4.5v2h-4.5v2.6h4.5h2.4v-2.7v-1.7v-2.5V18V15.6
		L312.4,15.6z M300.8,22.4v-4.5h1.7v4.5H300.8z M305,15.6h-6.8V18v6.7h4.3v2h-4.3v2.6h4.3h2.6v-4.4v-2.6V15.6z M294.5,11h2.6v2.6
		h-2.6V11z M294.5,15.6h2.6v9.1h-2.6V15.6z M289.4,22.4v-4.5h2v4.5H289.4z M291.4,11v4.6h-4.6v0.2v2.1v4.4v2.4h2.7h1.8h2.6V18v-2.5
		V11H291.4z"/>
</g>
<g>
	<circle class="st9" cx="220" cy="20" r="20"/>
	<path class="st4" d="M239.3,25.4L239.3,25.4l-6.4-6.4l-0.1,0.1v0l0.1-0.1L239.3,25.4z M232.8,19.1L232.8,19.1l-8.7-8.7l-2.4,2.4
		l-3.2,0.2l0,3l-3.5,3.5l3.4,3.4l-1.1,1.1l-5.1-5.1l-2.9,2.9l2.2,2.2l-2.1,2.1l13.5,13.5c3.6-0.5,6.9-2,9.6-4.2
		c0.5-0.4,1-0.9,1.5-1.3c0.4-0.4,0.8-0.8,1.2-1.2c0.8-1,1.6-2,2.2-3.2c0.8-1.4,1.4-2.9,1.9-4.5L232.8,19.1L232.8,19.1z"/>
	<path class="st5" d="M228.6,19v3.6c0,0.7-0.6,1.3-1.3,1.3c-0.7,0-1.3-0.6-1.3-1.3v-3.5l-2.5,0.8l-1.7-0.8v3.5
		c0,3.1,2.5,5.5,5.6,5.5c3.1,0,5.6-2.5,5.6-5.6V19H228.6L228.6,19z M221.7,16.2l1.7,0.8l2.5-0.8v-1.8c-0.1-3-2.5-5.4-5.6-5.4
		c-3,0-5.5,2.4-5.6,5.4v8.1c0,0.7-0.6,1.3-1.3,1.3s-1.3-0.6-1.3-1.3V19h-4.3v3.5c0,3.1,2.5,5.6,5.6,5.6c3,0,5.5-2.4,5.6-5.5v-8
		c0-0.7,0.6-1.3,1.3-1.3c0.7,0,1.3,0.6,1.3,1.3V16.2L221.7,16.2z"/>
</g>
<g>
	<circle class="st10" cx="260" cy="20" r="20"/>
	<path class="st11" d="M269.9,18.6c0-0.2,0-0.4-0.1-0.6v0c-0.1-0.3-0.4-0.5-0.6-0.6c-0.3-0.1-0.6-0.2-0.9-0.2
		c-0.3,0-0.6,0.1-0.8,0.2c0.8,0.7,1.5,1.5,1.9,2.5c0.1-0.1,0.3-0.3,0.4-0.5C269.9,19.1,269.9,18.8,269.9,18.6z M268.3,22
		c0-0.9-0.3-1.7-0.8-2.4c-1-1.4-2.6-2.3-4.2-2.8l0,0c-0.3-0.1-0.6-0.2-0.9-0.2c-0.9-0.2-1.9-0.3-2.9-0.3c-1.3,0-2.6,0.2-3.9,0.6
		c-1.6,0.5-3.2,1.4-4.2,2.8c-0.5,0.7-0.8,1.6-0.8,2.5c0,0.3,0,0.6,0.1,0.9c0.2,0.7,0.5,1.3,1,1.9c0.5,0.5,1,1,1.6,1.4l0.4,0.2
		c1.7,1,3.7,1.4,5.7,1.4c0.3,0,0.7,0,1,0c2-0.2,4-0.8,5.6-2c0.5-0.4,1-0.8,1.4-1.4c0.4-0.5,0.7-1.1,0.8-1.8
		C268.3,22.5,268.3,22.3,268.3,22z M251.5,17.3c-0.3-0.1-0.5-0.2-0.8-0.2l-0.1,0h0h0c-0.4,0-0.8,0.2-1.1,0.4c-0.3,0.3-0.5,0.6-0.5,1
		l0,0v0.1c0,0.2,0.1,0.5,0.2,0.7c0.1,0.1,0.2,0.3,0.3,0.4C250,18.8,250.7,18,251.5,17.3z M265.8,12.1L265.8,12.1
		c0,0.4,0.2,0.7,0.4,1c0.2,0.2,0.6,0.4,0.9,0.4h0h0.1c0.3,0,0.7-0.1,0.9-0.4c0.2-0.2,0.4-0.5,0.4-0.9l0-0.1c0-0.4-0.2-0.7-0.4-0.9
		c-0.3-0.2-0.6-0.4-0.9-0.4c-0.1,0-0.2,0-0.3,0.1l0,0c-0.3,0.1-0.5,0.2-0.7,0.5C265.9,11.5,265.8,11.8,265.8,12.1z M271.5,18.4v0.2
		c0,0.6-0.2,1.1-0.5,1.6c-0.3,0.4-0.7,0.8-1.2,1.1c0,0.2,0,0.5,0,0.7c0,1.2-0.4,2.5-1.2,3.5c-1.4,1.8-3.5,2.9-5.7,3.5
		c-1.2,0.3-2.4,0.4-3.5,0.4c-1.8,0-3.5-0.3-5.2-1c-1.7-0.7-3.3-1.8-4.3-3.5c-0.5-0.9-0.8-1.9-0.8-2.9c0-0.2,0-0.5,0-0.7
		c-0.4-0.2-0.8-0.6-1.1-1c-0.3-0.5-0.5-1-0.5-1.6l0,0c0-0.8,0.3-1.6,0.9-2.1c0.5-0.6,1.3-0.9,2.1-0.9h0h0.2c0.4,0,0.8,0.1,1.2,0.2
		c0.3,0.1,0.6,0.3,0.9,0.5c0.1,0,0.2-0.1,0.3-0.1c1.7-1,3.8-1.4,5.7-1.5c0-1,0.1-2,0.6-2.9c0.4-0.7,1.1-1.3,1.9-1.5h0
		c0.3-0.1,0.6-0.1,0.9-0.1c0.8,0,1.6,0.2,2.4,0.5c0.3-0.5,0.8-0.9,1.4-1.1h0c0.3-0.1,0.7-0.2,1-0.2c0.4,0,0.8,0.1,1.1,0.2l0,0
		c0.5,0.2,0.9,0.5,1.2,1c0.3,0.4,0.5,1,0.5,1.5c0,0.1,0,0.2,0,0.3l0,0c-0.1,0.7-0.4,1.3-0.9,1.8c-0.5,0.4-1.2,0.7-1.9,0.7
		c-0.1,0-0.2,0-0.3,0c-0.7,0-1.3-0.4-1.8-0.9c-0.5-0.5-0.8-1.1-0.8-1.8l0-0.1c-0.6-0.3-1.3-0.5-2-0.5c-0.1,0-0.2,0-0.3,0
		c-0.5,0.1-1,0.4-1.2,0.8c-0.3,0.7-0.4,1.5-0.4,2.2c1.9,0.1,3.9,0.6,5.6,1.6l0,0l0.1,0.1c0.1-0.1,0.2-0.2,0.4-0.3
		c0.5-0.3,1.1-0.5,1.7-0.5c0.3,0,0.5,0,0.8,0.1l0,0h0c0.6,0.2,1.2,0.5,1.6,1C271.1,17.1,271.4,17.8,271.5,18.4L271.5,18.4z
		 M263.7,24.1c-0.1-0.1-0.3-0.1-0.4-0.1c-0.1,0-0.2,0-0.4,0.1c-1.1,0.6-2.3,1-3.5,1c-0.9,0-1.9-0.2-2.7-0.6l0,0
		c-0.1,0-0.3-0.2-0.4-0.3c-0.1,0-0.2-0.1-0.3-0.1c-0.1,0-0.2-0.1-0.3-0.1c-0.1,0-0.2,0-0.3,0.1h0c-0.1,0.1-0.3,0.2-0.3,0.3
		c-0.1,0.1-0.1,0.3-0.1,0.4c0,0.1,0,0.3,0.1,0.4c0.1,0.1,0.1,0.2,0.3,0.3c1.2,0.8,2.6,1.2,4,1.2c1.3,0,2.6-0.3,3.7-0.8h0v0
		c0.2-0.1,0.4-0.2,0.5-0.3c0.1-0.1,0.2-0.1,0.3-0.2c0.1-0.1,0.1-0.2,0.2-0.3c0-0.1,0-0.1,0-0.2c0-0.1,0-0.2-0.1-0.3
		C263.9,24.3,263.8,24.2,263.7,24.1z"/>
	<path class="st12" d="M248.5,20.8l0.6,0.6l0-0.1C248.9,21.2,248.7,21,248.5,20.8z"/>
	<path class="st4" d="M280,21l-10.6-10.6l0.1,0.1c0.3,0.4,0.5,1,0.5,1.5c0,0.1,0,0.2,0,0.3l0,0c-0.1,0.7-0.4,1.3-0.9,1.8
		c-0.5,0.4-1.2,0.7-1.9,0.7c-0.1,0-0.2,0-0.3,0c-0.7,0-1.3-0.4-1.8-0.9c-0.5-0.5-0.8-1.1-0.8-1.8l0-0.1c-0.6-0.3-1.3-0.5-2-0.5
		c-0.1,0-0.2,0-0.3,0c-0.5,0.1-1,0.4-1.2,0.8c-0.3,0.7-0.4,1.5-0.4,2.2c1.9,0.1,3.9,0.6,5.6,1.6l0,0l0.1,0.1
		c0.1-0.1,0.2-0.2,0.4-0.3c0.5-0.3,1.1-0.5,1.7-0.5c0.3,0,0.5,0,0.8,0.1l0,0h0c0.6,0.2,1.2,0.5,1.6,1c0.4,0.5,0.7,1.1,0.8,1.8v0.2
		c0,0.6-0.2,1.1-0.5,1.6c-0.3,0.4-0.7,0.8-1.2,1.1c0,0.2,0,0.5,0,0.7c0,1.2-0.4,2.5-1.2,3.5c-1.4,1.8-3.5,2.9-5.7,3.5
		c-1.2,0.3-2.4,0.4-3.5,0.4c-1.8,0-3.5-0.3-5.2-1c-1.3-0.5-2.5-1.3-3.4-2.3l0,0l13.4,13.4C272.9,37.7,279.5,30.2,280,21z"/>
	<path class="st12" d="M269.9,18.6c0-0.2,0-0.4-0.1-0.6v0c-0.1-0.3-0.4-0.5-0.6-0.6c-0.3-0.1-0.6-0.2-0.9-0.2
		c-0.3,0-0.6,0.1-0.8,0.2c0.8,0.7,1.5,1.5,1.9,2.5c0.1-0.1,0.3-0.3,0.4-0.5C269.9,19.1,269.9,18.8,269.9,18.6z"/>
	<path class="st5" d="M268.3,22c0-0.9-0.3-1.7-0.8-2.4c-1-1.4-2.6-2.3-4.2-2.8l0,0c-0.3-0.1-0.6-0.2-0.9-0.2
		c-0.9-0.2-1.9-0.3-2.9-0.3c-1.3,0-2.6,0.2-3.9,0.6c-1.6,0.5-3.2,1.4-4.2,2.8c-0.5,0.7-0.8,1.6-0.8,2.5c0,0.3,0,0.6,0.1,0.9
		c0.2,0.7,0.5,1.3,1,1.9c0.5,0.5,1,1,1.6,1.4l0.4,0.2c1.7,1,3.7,1.4,5.7,1.4c0.3,0,0.7,0,1,0c2-0.2,4-0.8,5.6-2
		c0.5-0.4,1-0.8,1.4-1.4c0.4-0.5,0.7-1.1,0.8-1.8C268.3,22.5,268.3,22.3,268.3,22z"/>
	<path class="st5" d="M251.5,17.3c-0.3-0.1-0.5-0.2-0.8-0.2l-0.1,0h0h0c-0.4,0-0.8,0.2-1.1,0.4c-0.3,0.3-0.5,0.6-0.5,1l0,0v0.1
		c0,0.2,0.1,0.5,0.2,0.7c0.1,0.1,0.2,0.3,0.3,0.4C250,18.8,250.7,18,251.5,17.3z"/>
	<path class="st5" d="M265.8,12.1L265.8,12.1c0,0.4,0.2,0.7,0.4,1c0.2,0.2,0.6,0.4,0.9,0.4h0h0.1c0.3,0,0.7-0.1,0.9-0.4
		c0.2-0.2,0.4-0.5,0.4-0.9l0-0.1c0-0.4-0.2-0.7-0.4-0.9c-0.3-0.2-0.6-0.4-0.9-0.4c-0.1,0-0.2,0-0.3,0.1l0,0
		c-0.3,0.1-0.5,0.2-0.7,0.5C265.9,11.5,265.8,11.8,265.8,12.1z"/>
	<path class="st13" d="M264.6,20.3c0.1,0.2,0.1,0.3,0.1,0.5c0,0.3-0.1,0.6-0.3,0.9s-0.5,0.5-0.8,0.5l0,0c-0.1,0-0.3,0.1-0.4,0.1
		c-0.4,0-0.7-0.1-1-0.3c-0.3-0.2-0.5-0.5-0.5-0.9v0c0-0.1,0-0.2,0-0.3c0-0.3,0.1-0.6,0.3-0.9c0.2-0.2,0.4-0.4,0.7-0.5
		c0.2-0.1,0.4-0.1,0.5-0.1c0.3,0,0.6,0.1,0.9,0.3C264.3,19.7,264.5,19.9,264.6,20.3L264.6,20.3L264.6,20.3z"/>
	<path class="st13" d="M255.3,22.2L255.3,22.2c0.2,0.1,0.3,0.1,0.5,0.1c0.4,0,0.8-0.1,1.1-0.4c0.3-0.3,0.5-0.6,0.5-1.1l0,0l0-0.1
		c0-0.4-0.2-0.8-0.5-1c-0.3-0.3-0.7-0.4-1-0.4c-0.1,0-0.2,0-0.3,0h0c-0.5,0.1-1,0.5-1.1,1c0,0.2-0.1,0.3-0.1,0.4
		c0,0.3,0.1,0.6,0.3,0.9C254.7,21.9,254.9,22.1,255.3,22.2L255.3,22.2z"/>
	<path class="st11" d="M263.7,24.1c0.1,0.1,0.2,0.2,0.3,0.3c0,0.1,0.1,0.2,0.1,0.3c0,0.1,0,0.1,0,0.2c0,0.1-0.1,0.2-0.2,0.3
		c-0.1,0.1-0.2,0.2-0.3,0.2c-0.2,0.1-0.4,0.2-0.5,0.3v0h0c-1.1,0.5-2.4,0.8-3.7,0.8c-1.4,0-2.8-0.4-4-1.2c-0.1-0.1-0.2-0.2-0.3-0.3
		c-0.1-0.1-0.1-0.2-0.1-0.4c0-0.1,0-0.3,0.1-0.4c0.1-0.1,0.2-0.2,0.3-0.3h0c0.1,0,0.2-0.1,0.3-0.1c0.1,0,0.2,0,0.3,0.1
		c0.1,0,0.2,0.1,0.3,0.1c0.2,0.1,0.3,0.2,0.4,0.3l0,0c0.8,0.4,1.8,0.6,2.7,0.6c1.2,0,2.5-0.4,3.5-1c0.1-0.1,0.2-0.1,0.4-0.1
		C263.4,24,263.5,24,263.7,24.1z"/>
</g>
<g>
	<circle class="st14" cx="380" cy="20" r="20"/>
	<rect x="369" y="9" class="st2" width="10.7" height="10.7"/>
	<rect x="369" y="19.7" class="st15" width="10.7" height="10.7"/>
	<rect x="379.7" y="19.7" class="st16" width="10.7" height="10.7"/>
	<rect x="379.7" y="9" class="st15" width="10.7" height="10.7"/>
	<path class="st4" d="M378.5,40c0.5,0,1,0,1.5,0c11,0,20-9,20-20c0-0.5,0-1,0-1.5L390.4,9v10.7v10.7h-10.7H369L378.5,40z"/>
</g>
<g>
	<circle class="st17" cx="420" cy="20" r="20"/>
	<path class="st2" d="M419.6,25.8v-4l-2.4-1.7c-0.2,0.1-0.4,0.2-0.7,0.2c-0.8,0-1.4-0.6-1.4-1.4c0-0.8,0.6-1.4,1.4-1.4
		c0.8,0,1.4,0.6,1.4,1.4c0,0.1,0,0.2,0,0.3l1.7,1.2v-4l-2.4-1.7c-0.2,0.1-0.4,0.2-0.7,0.2c-0.8,0-1.4-0.6-1.4-1.4
		c0-0.8,0.6-1.4,1.4-1.4c0.8,0,1.4,0.6,1.4,1.4c0,0.1,0,0.2,0,0.3l1.7,1.2v-3.6h1.3v6.4l1.7-1.2c0-0.1,0-0.2,0-0.3
		c0-0.8,0.6-1.4,1.4-1.4c0.8,0,1.4,0.6,1.4,1.4c0,0.8-0.6,1.4-1.4,1.4c-0.2,0-0.5-0.1-0.7-0.2l-2.4,1.6v4l1.7-1.2c0-0.1,0-0.2,0-0.3
		c0-0.8,0.6-1.4,1.4-1.4c0.8,0,1.4,0.6,1.4,1.4s-0.6,1.4-1.4,1.4c-0.2,0-0.5-0.1-0.7-0.2l-2.4,1.7v4l1.7-1.2c0-0.1,0-0.2,0-0.3
		c0-0.8,0.6-1.4,1.4-1.4c0.8,0,1.4,0.6,1.4,1.4c0,0.8-0.6,1.4-1.4,1.4c-0.2,0-0.5-0.1-0.7-0.2l-2.4,1.7v1.4h4c2,0,3.6-1.6,3.6-3.5
		V11.5c0-1.9-1.6-3.5-3.6-3.5h-9.3c-2,0-3.6,1.6-3.6,3.5v16.5c0,1.9,1.6,3.5,3.6,3.5h4v-4.2l-2.4-1.7c-0.2,0.1-0.4,0.2-0.7,0.2
		c-0.8,0-1.4-0.6-1.4-1.4s0.6-1.4,1.4-1.4c0.8,0,1.4,0.6,1.4,1.4c0,0.1,0,0.2,0,0.3L419.6,25.8z"/>
	<path class="st4" d="M422.6,39.8c9.4-1.2,16.7-8.9,17.4-18.4L427.6,9.2c0.5,0.6,0.9,1.4,0.9,2.3v16.5c0,1.9-1.6,3.5-3.6,3.5h-4V30
		l2.4-1.7c0.2,0.1,0.5,0.2,0.7,0.2c0.8,0,1.4-0.6,1.4-1.4c0-0.8-0.6-1.4-1.4-1.4c-0.8,0-1.4,0.6-1.4,1.4c0,0.1,0,0.2,0,0.3l-1.7,1.2
		v-4l2.4-1.7c0.2,0.1,0.5,0.2,0.7,0.2c0.8,0,1.4-0.6,1.4-1.4s-0.6-1.4-1.4-1.4c-0.8,0-1.4,0.6-1.4,1.4c0,0.1,0,0.2,0,0.3l-1.7,1.2
		v-4l2.4-1.6c0.2,0.1,0.5,0.2,0.7,0.2c0.8,0,1.4-0.6,1.4-1.4c0-0.8-0.6-1.4-1.4-1.4c-0.8,0-1.4,0.6-1.4,1.4c0,0.1,0,0.2,0,0.3
		l-1.7,1.2v-6.4h-1.3V15l-1.7-1.2c0-0.1,0-0.2,0-0.3c0-0.8-0.6-1.4-1.4-1.4c-0.8,0-1.4,0.6-1.4,1.4c0,0.8,0.6,1.4,1.4,1.4
		c0.2,0,0.5-0.1,0.7-0.2l2.4,1.7v4l-1.7-1.2c0-0.1,0-0.2,0-0.3c0-0.8-0.6-1.4-1.4-1.4c-0.8,0-1.4,0.6-1.4,1.4c0,0.8,0.6,1.4,1.4,1.4
		c0.2,0,0.5-0.1,0.7-0.2l2.4,1.7v4l-1.7-1.2c0-0.1,0-0.2,0-0.3c0-0.8-0.6-1.4-1.4-1.4c-0.8,0-1.4,0.6-1.4,1.4s0.6,1.4,1.4,1.4
		c0.2,0,0.5-0.1,0.7-0.2l2.4,1.7v4.2h-4c-0.9,0-1.8-0.3-2.4-0.9L422.6,39.8z"/>
</g>
<g>
	<circle class="st18" cx="540" cy="20" r="20"/>
	<path class="st2" d="M545.9,27.4c-0.5,0.2-1.3,0.4-2,0.4c-2,0.1-2.4-1.4-2.4-2.4v-7.7h5v-3.8h-5V7.6c0,0-3.6,0-3.6,0
		c-0.1,0-0.2,0.1-0.2,0.2c-0.2,1.9-1.1,5.3-4.9,6.7v3.2h2.5v8.1c0,2.8,2,6.7,7.5,6.6c1.8,0,3.8-0.8,4.3-1.5L545.9,27.4z"/>
</g>
<g>
	<circle class="st19" cx="179.9" cy="20" r="20"/>
	<g>
		<path class="st2" d="M179.9,10.6c3.1,0,3.5,0,4.7,0.1c1.1,0.1,1.8,0.2,2.2,0.4c0.5,0.2,0.9,0.5,1.3,0.9c0.4,0.4,0.7,0.8,0.9,1.3
			c0.2,0.4,0.3,1,0.4,2.2c0.1,1.2,0.1,1.6,0.1,4.7s0,3.5-0.1,4.7c-0.1,1.1-0.2,1.8-0.4,2.2c-0.2,0.5-0.5,0.9-0.9,1.3
			c-0.4,0.4-0.8,0.7-1.3,0.9c-0.4,0.2-1,0.3-2.2,0.4c-1.2,0.1-1.6,0.1-4.7,0.1s-3.5,0-4.7-0.1c-1.1-0.1-1.8-0.2-2.2-0.4
			c-0.5-0.2-0.9-0.5-1.3-0.9c-0.4-0.4-0.7-0.8-0.9-1.3c-0.2-0.4-0.3-1-0.4-2.2c-0.1-1.2-0.1-1.6-0.1-4.7s0-3.5,0.1-4.7
			c0.1-1.1,0.2-1.8,0.4-2.2c0.2-0.5,0.5-0.9,0.9-1.3c0.4-0.4,0.8-0.7,1.3-0.9c0.4-0.2,1-0.3,2.2-0.4
			C176.4,10.6,176.8,10.6,179.9,10.6 M179.9,8.5c-3.2,0-3.6,0-4.8,0.1c-1.2,0.1-2.1,0.3-2.8,0.5c-0.8,0.3-1.4,0.7-2.1,1.3
			c-0.6,0.6-1,1.3-1.3,2.1c-0.3,0.7-0.5,1.6-0.5,2.8c-0.1,1.2-0.1,1.6-0.1,4.8c0,3.2,0,3.6,0.1,4.8c0.1,1.2,0.3,2.1,0.5,2.8
			c0.3,0.8,0.7,1.4,1.3,2.1c0.6,0.6,1.3,1,2.1,1.3c0.7,0.3,1.6,0.5,2.8,0.5c1.2,0.1,1.6,0.1,4.8,0.1s3.6,0,4.8-0.1
			c1.2-0.1,2.1-0.3,2.8-0.5c0.8-0.3,1.4-0.7,2.1-1.3c0.6-0.6,1-1.3,1.3-2.1c0.3-0.7,0.5-1.6,0.5-2.8c0.1-1.2,0.1-1.6,0.1-4.8
			s0-3.6-0.1-4.8c-0.1-1.2-0.3-2.1-0.5-2.8c-0.3-0.8-0.7-1.4-1.3-2.1c-0.6-0.6-1.3-1-2.1-1.3c-0.7-0.3-1.6-0.5-2.8-0.5
			C183.5,8.5,183.1,8.5,179.9,8.5L179.9,8.5z"/>
		<path class="st2" d="M179.9,14.1c-3.3,0-6,2.7-6,6s2.7,6,6,6s6-2.7,6-6S183.2,14.1,179.9,14.1z M179.9,24c-2.1,0-3.9-1.7-3.9-3.9
			s1.7-3.9,3.9-3.9s3.9,1.7,3.9,3.9S182,24,179.9,24z"/>
		<circle class="st2" cx="186.1" cy="13.9" r="1.4"/>
	</g>
</g>
<g>
	<circle class="st20" cx="140" cy="20" r="20"/>
	<g>
		<path class="st2" d="M131.7,8.1h1.9l0.2,1l0.2,0.7l0.2,0.7l0.2,0.7l0.1,0.6h0.1l0.1-0.6l0.1-0.7l0.2-0.7l0.2-0.7l0.3-1h1.8
			l-1.9,5.8V18h-1.7v-4.1L131.7,8.1z"/>
		<path class="st2" d="M139.6,10.5c1.5,0,2.2,0.7,2.2,2.1V16c0,1.4-0.7,2.1-2.2,2.1c-1.5,0-2.2-0.7-2.2-2.1v-3.4
			C137.4,11.2,138.1,10.5,139.6,10.5z M139.6,11.7c-0.4,0-0.6,0.2-0.6,0.7v3.9c0,0.4,0.2,0.7,0.6,0.7c0.4,0,0.6-0.3,0.6-0.7v-3.9
			C140.2,11.9,140,11.7,139.6,11.7z"/>
		<path class="st2" d="M146.5,18l-0.1-0.6c-0.7,0.6-1.1,0.7-1.5,0.7c-0.4,0-0.8-0.2-1-0.4c-0.2-0.3-0.3-0.5-0.3-1.3v-5.8h1.6v5.8
			c0,0.4,0.1,0.6,0.4,0.6c0.2,0,0.4-0.1,0.7-0.3v-6h1.6V18H146.5z"/>
		<path class="st2" d="M131.8,19.4c-2.4,0-4.4,2-4.4,4.4v3.8c0,2.4,2,4.4,4.4,4.4h16.4c2.4,0,4.4-2,4.4-4.4v-3.8
			c0-2.4-2-4.4-4.4-4.4L131.8,19.4L131.8,19.4z M129.8,21.1h4.6v1.2h-1.5v7.9h-1.6v-7.9h-1.5V21.1z M140.3,21.1h1.5V24
			c0.6-0.5,1-0.7,1.4-0.7c0.3,0,0.7,0.2,0.9,0.4c0.2,0.2,0.2,0.5,0.2,1.2v3.8c0,0.7-0.1,1-0.2,1.2c-0.2,0.2-0.5,0.4-0.9,0.4
			c-0.4,0-0.8-0.2-1.4-0.7v0.6h-1.5V21.1L140.3,21.1z M147.9,23.3c1.2,0,2,0.6,2,1.7v2h-2.6v1.5c0,0.5,0.2,0.7,0.5,0.7
			c0.2,0,0.4-0.1,0.4-0.2c0.1-0.1,0.1-0.3,0.1-0.8v-0.4h1.5V28c0,0.2,0,0.3,0,0.4c0,1.2-0.7,1.8-2.1,1.8c-1.3,0-2-0.7-2-1.9v-3.1
			C145.8,23.9,146.5,23.3,147.9,23.3L147.9,23.3z M134.6,23.4h1.5v5.3c0,0.3,0.1,0.5,0.4,0.5c0.2,0,0.4-0.1,0.7-0.3v-5.5h1.5v6.8
			h-1.4l-0.1-0.6c-0.6,0.5-1,0.7-1.4,0.7c-0.4,0-0.7-0.2-0.9-0.4c-0.2-0.2-0.2-0.5-0.2-1.2L134.6,23.4L134.6,23.4z M142.4,24.4
			c-0.2,0-0.4,0.1-0.7,0.3v4.2c0.3,0.2,0.5,0.3,0.7,0.3c0.3,0,0.4-0.2,0.4-0.5v-3.8C142.8,24.5,142.7,24.4,142.4,24.4z M147.8,24.4
			c-0.3,0-0.5,0.2-0.5,0.5V26h1.1v-1.1C148.4,24.6,148.2,24.4,147.8,24.4z"/>
	</g>
</g>
<g>
	<circle class="st21" cx="340" cy="20" r="20"/>
	<g>
		<path class="st5" d="M351.8,14.5c0.2-1,0.2-2-0.4-2.8c-0.9-1.1-2.7-1.1-4-0.9c-1,0.2-4.5,1.7-5.7,5.3c2.1-0.2,3.2,0.2,3,2.4
			c-0.1,1-0.6,2-1.1,3c-0.6,1.2-1.8,3.4-3.3,1.8c-1.4-1.5-1.3-4.3-1.6-6.2c-0.2-1.1-0.4-2.4-0.7-3.5c-0.3-0.9-1-2.1-1.8-2.3
			c-0.9-0.3-2,0.1-2.7,0.5c-2.1,1.2-3.7,3-5.5,4.4v0.1c0.4,0.3,0.5,0.9,1,1c1.2,0.2,2.4-1.2,3.2,0.2c0.5,0.9,0.7,1.8,1,2.7
			c0.4,1.2,0.8,2.6,1.1,4c0.6,2.4,1.3,5.9,3.4,6.8c1,0.4,2.6-0.2,3.4-0.6c2.2-1.3,3.8-3.1,5.3-5C349.7,21,351.5,16,351.8,14.5z"/>
	</g>
</g>
<g>
	<circle class="st22" cx="500" cy="20" r="20"/>
	<g>
		<path class="st2" d="M490,15.8h4.5v14.5H490V15.8z M492.2,8.6c1.4,0,2.6,1.2,2.6,2.6c0,1.4-1.2,2.6-2.6,2.6
			c-1.4,0-2.6-1.2-2.6-2.6C489.6,9.8,490.8,8.6,492.2,8.6"/>
		<path class="st2" d="M497.3,15.8h4.3v2h0.1c0.6-1.1,2.1-2.3,4.3-2.3c4.6,0,5.4,3,5.4,6.9v8h-4.5v-7c0-1.7,0-3.8-2.3-3.8
			c-2.3,0-2.7,1.8-2.7,3.7v7.2h-4.5V15.8z"/>
	</g>
	<g>
		<path class="st2" d="M490,55.8h4.5v14.5H490V55.8z M492.2,48.6c1.4,0,2.6,1.2,2.6,2.6c0,1.4-1.2,2.6-2.6,2.6
			c-1.4,0-2.6-1.2-2.6-2.6C489.6,49.8,490.8,48.6,492.2,48.6"/>
		<path class="st2" d="M497.3,55.8h4.3v2h0.1c0.6-1.1,2.1-2.3,4.3-2.3c4.6,0,5.4,3,5.4,6.9v8h-4.5v-7c0-1.7,0-3.8-2.3-3.8
			c-2.3,0-2.7,1.8-2.7,3.7v7.2h-4.5V55.8z"/>
	</g>
</g>
<g>
	<circle class="st2" cx="580" cy="20" r="20"/>
	<g>
		<path class="st23" d="M580,0c-11,0-20,9-20,20c0,8.2,4.9,15.2,12,18.3c-0.1-1.4,0-3.1,0.3-4.6c0.4-1.6,2.6-10.9,2.6-10.9
			s-0.6-1.3-0.6-3.2c0-3,1.7-5.2,3.9-5.2c1.8,0,2.7,1.4,2.7,3c0,1.8-1.2,4.6-1.8,7.1c-0.5,2.1,1.1,3.9,3.2,3.9
			c3.8,0,6.3-4.9,6.3-10.6c0-4.4-3-7.7-8.3-7.7c-6.1,0-9.8,4.5-9.8,9.6c0,1.7,0.5,3,1.3,3.9c0.4,0.4,0.4,0.6,0.3,1.1
			c-0.1,0.4-0.3,1.3-0.4,1.6c-0.1,0.5-0.5,0.7-1,0.5c-2.8-1.1-4.1-4.2-4.1-7.6c0-5.7,4.8-12.5,14.3-12.5c7.6,0,12.7,5.5,12.7,11.5
			c0,7.8-4.4,13.7-10.8,13.7c-2.2,0-4.2-1.2-4.9-2.5c0,0-1.2,4.6-1.4,5.5c-0.4,1.5-1.3,3.1-2,4.3c1.8,0.5,3.7,0.8,5.7,0.8
			c11,0,20-9,20-20C600,9,591,0,580,0z"/>
	</g>
</g>
<g>
	<circle class="st24" cx="460" cy="20" r="20"/>
	<g>
		<g>
			<path class="st2" d="M467.3,9.3c0,0-10.8,0-12.5,0c-1.7,0-2.2,1.3-2.2,2.1c0,0.8,0,19.8,0,19.8c0,0.9,0.5,1.3,0.8,1.4
				c0.3,0.1,1,0.2,1.5-0.3c0,0,5.9-6.8,6-6.9c0.2-0.2,0.2-0.2,0.3-0.2c0.3,0,2.6,0,3.8,0c1.6,0,1.9-1.1,2-1.8
				c0.1-0.6,1.7-8.6,2.2-11.1C469.6,10.3,469.1,9.3,467.3,9.3z M467,23.4c0.1-0.6,1.7-8.6,2.2-11.1 M466.5,12.7l-0.5,2.7
				c-0.1,0.3-0.4,0.6-0.8,0.6c-0.3,0-4.9,0-4.9,0c-0.5,0-0.9,0.4-0.9,0.9v0.6c0,0.5,0.4,0.9,0.9,0.9c0,0,3.7,0,4.1,0
				c0.4,0,0.8,0.4,0.7,0.8c-0.1,0.4-0.5,2.5-0.5,2.7c0,0.2-0.3,0.6-0.8,0.6c-0.4,0-3.4,0-3.4,0c-0.6,0-0.8,0.1-1.2,0.6
				c-0.4,0.5-4.1,4.9-4.1,4.9c0,0-0.1,0-0.1,0V12.6c0-0.3,0.3-0.8,0.8-0.8c0,0,9.6,0,10,0C466.3,11.9,466.6,12.2,466.5,12.7z"/>
		</g>
	</g>
</g>
<path class="st2" d="M16.5,52.6v3.3h-2.4V60h2.4v12.2h5V60h3.4c0,0,0.3-2,0.5-4.1h-3.8v-2.8c0-0.4,0.6-1,1.1-1h2.8v-4.3h-3.7
	C16.4,47.8,16.5,52,16.5,52.6z"/>
<g>
	<circle class="st25" cx="620" cy="20" r="20"/>
	<path class="st2" d="M615.1,8.9l-1.2,8.1H613l-1.9-4.6l-1.9,4.6h-0.9l-1.1-8.1h1.2c0.4,3.8,0.7,5.8,0.7,6l1.5-3.5h1.2l1.5,3.5
		l0.7-6H615.1z"/>
	<path class="st2" d="M624.7,8.9l-1.2,8.1h-0.9l-1.9-4.6l-1.9,4.6h-0.9l-1.1-8.1h1.2c0.4,3.8,0.7,5.8,0.7,6l1.5-3.5h1.2l1.5,3.5
		l0.7-6H624.7z"/>
	<path class="st2" d="M634.3,8.9l-1.2,8.1h-0.9l-1.9-4.6l-1.9,4.6h-0.9l-1.1-8.1h1.2c0.4,3.8,0.7,5.8,0.7,6l1.5-3.5h1.2l1.5,3.5
		l0.7-6H634.3z"/>
	<path class="st2" d="M617.9,32c0.1-1.9,0-11.9,0-11.9l8.4,9.1l-4.1-0.2l2.2,5.1l-1.4,0.5l-2.1-5.2"/>
</g>
<g>
	<circle class="st26" cx="660" cy="20" r="20"/>
	<g>
		<path class="st2" d="M662.2,15.8l0.3-1.1h2.7l-1.5,7.3c-0.1,0.5-0.1,0.8-0.1,0.9c0,0.2,0,0.3,0.1,0.4c0.1,0.1,0.2,0.1,0.3,0.1
			c0.4,0,0.8-0.2,1.4-0.7c0.6-0.5,1.1-1.1,1.5-1.9c0.4-0.8,0.6-1.7,0.6-2.7c0-0.8-0.2-1.6-0.5-2.3c-0.3-0.7-0.8-1.3-1.3-1.9
			c-0.6-0.5-1.3-0.9-2.2-1.2s-1.8-0.4-2.9-0.4c-1.1,0-2.1,0.1-3,0.4c-0.9,0.3-1.7,0.7-2.4,1.2c-0.7,0.5-1.3,1.2-1.7,2
			c-0.4,0.7-0.7,1.5-0.9,2.3s-0.3,1.7-0.3,2.6c0,1.2,0.2,2.2,0.7,3.2c0.5,1,1.1,1.8,2,2.4c0.9,0.7,1.9,1.1,3.2,1.4
			c1.2,0.3,2.7,0.3,4.2,0.2c1.2-0.1,2.3-0.4,3.2-0.9c0.9-0.4,1.6-1,2.2-1.8h2.2c-0.4,0.7-0.8,1.4-1.4,1.9c-0.6,0.6-1.2,1-2,1.4
			c-0.8,0.4-1.6,0.7-2.5,0.9c-0.9,0.2-2,0.3-3.1,0.3c-1.7,0-3.2-0.2-4.5-0.7c-1.3-0.4-2.4-1.1-3.4-1.9c-0.9-0.8-1.6-1.8-2.1-2.9
			c-0.5-1.1-0.7-2.4-0.7-3.8c0-1.4,0.2-2.8,0.7-4c0.5-1.2,1.2-2.3,2.1-3.3c0.9-0.9,2-1.6,3.3-2.2c1.3-0.5,2.7-0.8,4.3-0.8
			c1.3,0,2.5,0.2,3.5,0.6c1.1,0.4,2,0.9,2.7,1.6c0.8,0.7,1.3,1.5,1.7,2.5c0.4,1,0.6,2,0.6,3.2c0,0.9-0.2,1.8-0.5,2.7
			c-0.3,0.9-0.8,1.6-1.4,2.3s-1.3,1.2-2.1,1.6c-0.8,0.4-1.7,0.6-2.6,0.6c-0.5,0-1-0.1-1.3-0.3s-0.5-0.5-0.6-0.9
			c-0.6,0.6-1.3,0.9-2,1.1c-0.8,0.2-1.5,0.1-2.2-0.2s-1.3-0.8-1.7-1.5s-0.7-1.6-0.7-2.6c0-1.1,0.2-2.1,0.7-3.1
			c0.5-1,1.1-1.9,1.9-2.5c0.8-0.7,1.8-1,2.8-1C660.7,14.4,661.6,14.9,662.2,15.8z M656.7,21c0,0.8,0.2,1.4,0.5,1.9
			c0.3,0.4,0.8,0.6,1.3,0.6c0.6,0,1.2-0.3,1.7-0.8s0.8-1.1,1.1-1.9c0.2-0.8,0.4-1.5,0.4-2.2c0-0.4,0-0.7-0.1-1s-0.2-0.5-0.4-0.8
			c-0.2-0.2-0.4-0.4-0.6-0.5c-0.2-0.1-0.5-0.2-0.8-0.2c-0.6,0-1.1,0.2-1.6,0.7c-0.5,0.5-0.8,1.1-1.1,1.8
			C656.8,19.5,656.7,20.2,656.7,21z"/>
	</g>
</g>
<g>
	<path class="st27" d="M150,280h140V140H150V280z M151.3,141.3h137.5v137.5H151.3V141.3z"/>
	<path class="st28" d="M288.8,141.3H151.3v137.5h137.5V141.3z M280.1,183.8v86.3H159.9v-86.3v-33.8h120.1V183.8z"/>
	<path class="st2" d="M159.9,270.1h120.1v-86.3H159.9V270.1z M182.9,195.8h75.3v1.1h-75.3V195.8z M182.9,198h75.3v1.1h-75.3V198z
		 M182.9,201.3h75.3v39.3h-75.3V201.3z M182.9,247.1h75.3v1.1h-75.3V247.1z M182.9,249.3h75.3v1.1h-75.3V249.3z M182.9,251.5h75.3
		v1.1h-75.3V251.5z M182.9,253.7h75.3v1.1h-75.3V253.7z M182.9,255.9h75.3v1.1h-75.3V255.9z M170.9,195.8h9.8v9.8h-9.8V195.8z
		 M170.9,247.1h9.8v9.8h-9.8V247.1z"/>
	<path class="st29" d="M159.9,183.8h120.1v-33.8H159.9V183.8z M189.4,166.3H244v5.5h-54.6V166.3z M189.4,172.9H244v2.2h-54.6V172.9z
		 M167.6,156.5h18.6v18.6h-18.6V156.5z"/>
	<rect x="167.6" y="156.5" class="st2" width="18.6" height="18.6"/>
	<rect x="170.9" y="195.8" class="st29" width="9.8" height="9.8"/>
	<rect x="170.9" y="247.1" class="st29" width="9.8" height="9.8"/>
	<rect x="182.9" y="201.3" class="st29" width="75.3" height="39.3"/>
	<rect x="182.9" y="198" class="st29" width="75.3" height="1.1"/>
	<rect x="182.9" y="195.8" class="st29" width="75.3" height="1.1"/>
	<rect x="182.9" y="253.7" class="st29" width="75.3" height="1.1"/>
	<rect x="182.9" y="255.9" class="st29" width="75.3" height="1.1"/>
	<rect x="182.9" y="251.5" class="st29" width="75.3" height="1.1"/>
	<rect x="182.9" y="249.3" class="st29" width="75.3" height="1.1"/>
	<rect x="182.9" y="247.1" class="st29" width="75.3" height="1.1"/>
	<rect x="189.4" y="166.3" class="st2" width="54.6" height="5.5"/>
	<rect x="189.4" y="172.9" class="st2" width="54.6" height="2.2"/>
</g>
<g>
	<path class="st27" d="M300,280h140V140H300V280z M301.3,141.3h137.5v137.5H301.3V141.3z"/>
	<path class="st28" d="M438.7,141.3H301.3v137.5h137.5V141.3z M410.5,193.1c-4.7,0-9-2-12-5.2l-28.5,13.1c0.6,2.2,0.9,4.4,0.9,6.8
		c0,5.4-1.6,10.4-4.3,14.7l20.4,13.6c1.8-1.4,4.1-2.2,6.6-2.2c6.1,0,11,4.9,11,11c0,6.1-4.9,11-11,11c-6.1,0-11-4.9-11-11
		c0-1.1,0.2-2.1,0.5-3.1l-20.9-13.9c-5.7,5.5-13.6,9-22.5,9c-2.9,0-5.7-0.4-8.4-1.1l0,0l-11.9,6.5v-12.5
		c-6.6-5.3-10.8-13.2-10.8-22.1c0-16.1,13.9-29.1,31.1-29.1c10.8,0,20.3,5.1,25.9,12.9l28.5-13.1c-0.1-0.6-0.1-1.2-0.1-1.8
		c0-9.1,7.3-16.4,16.4-16.4s16.4,7.3,16.4,16.4C426.9,185.7,419.6,193.1,410.5,193.1z"/>
	<path class="st29" d="M410.5,160.3c-9.1,0-16.4,7.3-16.4,16.4c0,0.6,0,1.2,0.1,1.8l14.1-6.5l4.3,9.5l-14.1,6.5
		c3,3.2,7.2,5.2,12,5.2c9.1,0,16.4-7.3,16.4-16.4C426.9,167.6,419.6,160.3,410.5,160.3z"/>
	<path class="st29" d="M391,247l-7.9-5.3c-0.3,1-0.5,2-0.5,3.1c0,6.1,4.9,11,11,11c6.1,0,11-4.9,11-11c0-6.1-4.9-11-11-11
		c-2.5,0-4.7,0.8-6.6,2.2l7.8,5.2L391,247z"/>
	<path class="st29" d="M362.2,227.8l20.9,13.9c0.7-2.3,2.1-4.3,4-5.7l-20.4-13.6C365.4,224.4,363.9,226.2,362.2,227.8z"/>
	<path class="st29" d="M383.1,241.8l7.9,5.3l3.8-5.8l-7.8-5.2C385.2,237.5,383.8,239.4,383.1,241.8z"/>
	<path class="st29" d="M365.7,191.5c2,2.8,3.5,6,4.4,9.4l28.5-13.1c-2.4-2.5-4-5.8-4.3-9.5L365.7,191.5z"/>
	<path class="st29" d="M408.4,171.9l-14.1,6.5c0.4,3.6,2,6.9,4.3,9.5l14.1-6.5L408.4,171.9z"/>
	<path class="st29" d="M344.2,216.5l-2.1-2.1l-3.9-2.6l0.5-0.8l-2.7-2.7l-15.6,8.8l16.9-18.3l3.8,3.8l24.4-11.2
		c-5.6-7.8-15.1-12.9-25.9-12.9c-17.2,0-31.1,13-31.1,29.1c0,8.8,4.2,16.7,10.8,22.1v12.5l11.9-6.5l0,0c2.7,0.7,5.5,1.1,8.4,1.1
		c8.8,0,16.8-3.4,22.5-9L344.6,216L344.2,216.5z"/>
	<path class="st29" d="M349.1,210.7l17.6,11.7c2.7-4.3,4.3-9.4,4.3-14.7c0-2.3-0.3-4.6-0.9-6.8l-20.8,9.5L349.1,210.7z"/>
	<path class="st29" d="M344.6,216l17.7,11.8c1.7-1.6,3.2-3.4,4.4-5.4l-17.6-11.7L344.6,216z"/>
	<polygon class="st29" points="338.2,211.8 342.1,214.4 338.7,211 	"/>
	<path class="st29" d="M341.2,202.7l4.3,4.3l13.5-8.1l-9.8,11.6l20.8-9.5c-0.9-3.4-2.4-6.6-4.4-9.4L341.2,202.7z"/>
	<polygon class="st2" points="349.1,210.7 349.3,210.4 348.9,210.6 	"/>
	<polygon class="st2" points="359.1,198.9 345.5,207 341.2,202.7 337.4,198.9 320.5,217.2 336.1,208.4 338.7,211 342.1,214.4 
		344.2,216.5 344.6,216 349.1,210.7 348.9,210.6 349.3,210.4 	"/>
</g>
<g>
	<path class="st27" d="M0,280h140V140H0V280z M1.2,141.2h137.5v137.5H1.2V141.2z"/>
	<path class="st28" d="M138.8,141.2H1.2v137.5h137.5V141.2z M35.1,260.8H11.5v-23.6h23.6V260.8z M35.1,217.2H11.5v-23.6h23.6V217.2z
		 M35.1,173.6H11.5v-23.6h23.6V173.6z M128.5,270.2H43.7v-28l-5.1-5.1h5.1h10h74.7V270.2z M128.5,226.6H43.7v-28l-5.1-5.1h5.1h10
		h74.7V226.6z M128.5,183.1H43.7v-28l-5.1-5.1h5.1h10h74.7V183.1z"/>
	<rect x="11.5" y="193.5" class="st29" width="23.6" height="23.6"/>
	<path class="st29" d="M43.7,193.5h-5.1l5.1,5.1v28h84.8v-33.1H53.8H43.7z M121.4,219.5H49.3v-1.2h72.1V219.5z M121.4,216H49.3v-1.2
		h72.1V216z M121.4,212.5H49.3v-1.2h72.1V212.5z M121.4,208.9H49.3v-1.2h72.1V208.9z M121.4,205.4H49.3v-1.2h72.1V205.4z
		 M121.4,201.8H49.3v-1.2h72.1V201.8z"/>
	<rect x="49.3" y="200.6" class="st2" width="72.1" height="1.2"/>
	<rect x="49.3" y="204.2" class="st2" width="72.1" height="1.2"/>
	<rect x="49.3" y="207.7" class="st2" width="72.1" height="1.2"/>
	<rect x="49.3" y="211.3" class="st2" width="72.1" height="1.2"/>
	<rect x="49.3" y="214.8" class="st2" width="72.1" height="1.2"/>
	<rect x="49.3" y="218.4" class="st2" width="72.1" height="1.2"/>
	<rect x="11.5" y="237.1" class="st29" width="23.6" height="23.6"/>
	<path class="st29" d="M43.7,237.1h-5.1l5.1,5.1v28h84.8v-33.1H53.8H43.7z M121.4,263.1H49.3V262h72.1V263.1z M121.4,259.6H49.3
		v-1.2h72.1V259.6z M121.4,256H49.3v-1.2h72.1V256z M121.4,252.5H49.3v-1.2h72.1V252.5z M121.4,248.9H49.3v-1.2h72.1V248.9z
		 M121.4,245.4H49.3v-1.2h72.1V245.4z"/>
	<rect x="49.3" y="244.2" class="st2" width="72.1" height="1.2"/>
	<rect x="49.3" y="247.8" class="st2" width="72.1" height="1.2"/>
	<rect x="49.3" y="251.3" class="st2" width="72.1" height="1.2"/>
	<rect x="49.3" y="254.9" class="st2" width="72.1" height="1.2"/>
	<rect x="49.3" y="258.4" class="st2" width="72.1" height="1.2"/>
	<rect x="49.3" y="262" class="st2" width="72.1" height="1.2"/>
	<rect x="11.5" y="149.9" class="st29" width="23.6" height="23.6"/>
	<path class="st29" d="M43.7,149.9h-5.1l5.1,5.1v28h84.8v-33.1H53.8H43.7z M121.4,176H49.3V157h72.1V176z"/>
</g>
<g>
	<path class="st27" d="M750,280h140V140H750V280z M751.2,141.3h137.5v137.5H751.2V141.3z"/>
	<path class="st28" d="M888.8,141.3H751.2v137.5h137.5V141.3z M774.4,266h-13.2v-13.2h13.2V266z M774.4,194.6h-13.2v-13.2h13.2
		V194.6z M774.4,170.3h-13.2v-13.2h13.2V170.3z M878.9,266H777.3v-1.5h101.6V266z M878.9,263H777.3v-1.5h101.6V263z M878.9,260.1
		H777.3v-1.5h101.6V260.1z M878.9,257.2H777.3v-1.5h101.6V257.2z M878.9,254.2H777.3v-1.5h101.6V254.2z M878.9,241.7H777.3v-53
		h101.6V241.7z M878.9,185.8H777.3v-1.5h101.6V185.8z M878.9,182.8H777.3v-1.5h101.6V182.8z M878.9,170.3H777.3v-1.5h101.6V170.3z
		 M878.9,167.4H777.3v-1.5h101.6V167.4z M878.9,164.4H777.3V163h101.6V164.4z M878.9,161.5H777.3V160h101.6V161.5z M878.9,158.5
		H777.3v-1.5h101.6V158.5z"/>
	<rect x="761.1" y="252.7" class="st29" width="13.2" height="13.2"/>
	<rect x="777.3" y="261.6" class="st29" width="101.6" height="1.5"/>
	<rect x="777.3" y="264.5" class="st29" width="101.6" height="1.5"/>
	<rect x="777.3" y="258.6" class="st29" width="101.6" height="1.5"/>
	<rect x="777.3" y="255.7" class="st29" width="101.6" height="1.5"/>
	<rect x="777.3" y="252.7" class="st29" width="101.6" height="1.5"/>
	<rect x="761.1" y="157.1" class="st29" width="13.2" height="13.2"/>
	<rect x="777.3" y="165.9" class="st29" width="101.6" height="1.5"/>
	<rect x="777.3" y="168.8" class="st29" width="101.6" height="1.5"/>
	<rect x="777.3" y="163" class="st29" width="101.6" height="1.5"/>
	<rect x="777.3" y="160" class="st29" width="101.6" height="1.5"/>
	<rect x="777.3" y="157.1" class="st29" width="101.6" height="1.5"/>
	<rect x="761.1" y="181.4" class="st29" width="13.2" height="13.2"/>
	<path class="st29" d="M777.3,241.7h101.6v-53H777.3V241.7z M819.7,207.6l7.4-11.9l7.4,11.9l13.7,3.4l-9.1,10.8l1,14l-13-5.3
		l-13,5.3l1-14L806,211L819.7,207.6z"/>
	<rect x="777.3" y="184.3" class="st29" width="101.6" height="1.5"/>
	<rect x="777.3" y="181.4" class="st29" width="101.6" height="1.5"/>
	<polygon class="st2" points="814.1,235.8 827.1,230.5 840.2,235.8 839.2,221.8 848.2,211 834.6,207.6 827.1,195.7 819.7,207.6 
		806,211 815.1,221.8 	"/>
</g>
<g>
	<path class="st27" d="M900,280h140V140H900V280z M901.2,141.3h137.5v137.5H901.2V141.3z"/>
	<path class="st28" d="M1038.8,141.3H901.2v137.5h137.5V141.3z M935.1,260.8h-23.6v-23.6h23.6V260.8z M935.1,217.2h-23.6v-23.6h23.6
		V217.2z M935.1,173.6h-23.6v-23.6h23.6V173.6z M1028.5,270.2h-84.8v-28l-5.1-5.1h5.1h10h74.7V270.2z M1028.5,226.6h-84.8v-28
		l-5.1-5.1h5.1h10h74.7V226.6z M1028.5,183.1h-84.8v-28l-5.1-5.1h5.1h10h74.7V183.1z"/>
	<path class="st29" d="M911.5,217.2h23.6v-23.6h-23.6V217.2z M919.7,201.4l3.6-5.8l3.6,5.8l6.6,1.6l-4.4,5.2l0.5,6.8l-6.3-2.6
		l-6.3,2.6l0.5-6.8l-4.4-5.2L919.7,201.4z"/>
	<path class="st29" d="M953.3,200.6h68.2v1.2h-68.2l-0.2,2.4h68.4v1.2h-68.5l-0.2,2.3l-2.3-2.3h-1.2v-1.2h0l-5.6-5.6v28h84.8v-33.1
		h-74.7L953.3,200.6z M1021.4,219.5h-72.1v-1.2h72.1V219.5z M1021.4,216h-72.1v-1.2h72.1V216z M1021.4,212.5h-72.1v-1.2h72.1V212.5z
		 M1021.4,208.9h-72.1v-1.2h72.1V208.9z"/>
	<polygon class="st29" points="952.8,207.6 952.9,205.4 950.5,205.4 	"/>
	<polygon class="st29" points="953,204.2 953.2,201.8 949.3,201.8 949.3,200.6 953.3,200.6 953.8,193.5 943.7,193.5 938.7,193.5 
		943.7,198.6 949.3,204.2 	"/>
	<polygon class="st2" points="949.3,201.8 953.2,201.8 1021.4,201.8 1021.4,200.6 953.3,200.6 949.3,200.6 	"/>
	<polygon class="st2" points="949.3,204.2 949.3,205.4 950.5,205.4 952.9,205.4 1021.4,205.4 1021.4,204.2 953,204.2 949.3,204.2 	
		"/>
	<rect x="949.3" y="207.7" class="st2" width="72.1" height="1.2"/>
	<rect x="949.3" y="211.3" class="st2" width="72.1" height="1.2"/>
	<rect x="949.3" y="214.8" class="st2" width="72.1" height="1.2"/>
	<rect x="949.3" y="218.4" class="st2" width="72.1" height="1.2"/>
	<path class="st29" d="M911.5,260.8h23.6v-23.6h-23.6V260.8z M919.7,245l3.6-5.8l3.6,5.8l6.6,1.6l-4.4,5.2l0.5,6.8l-6.3-2.6
		l-6.3,2.6l0.5-6.8l-4.4-5.2L919.7,245z"/>
	<path class="st29" d="M953.3,244.2h68.2v1.2h-68.2l-0.2,2.4h68.4v1.2h-68.5l-0.2,2.3l-2.3-2.3h-1.2v-1.2h0l-5.6-5.6v28h84.8v-33.1
		h-74.7L953.3,244.2z M1021.4,263.1h-72.1V262h72.1V263.1z M1021.4,259.6h-72.1v-1.2h72.1V259.6z M1021.4,256h-72.1v-1.2h72.1V256z
		 M1021.4,252.5h-72.1v-1.2h72.1V252.5z"/>
	<polygon class="st29" points="953,247.8 953.2,245.4 949.3,245.4 949.3,244.2 953.3,244.2 953.8,237.1 943.7,237.1 938.7,237.1 
		943.7,242.2 949.3,247.8 	"/>
	<polygon class="st29" points="952.8,251.2 952.9,248.9 950.5,248.9 	"/>
	<polygon class="st2" points="949.3,245.4 953.2,245.4 1021.4,245.4 1021.4,244.2 953.3,244.2 949.3,244.2 	"/>
	<polygon class="st2" points="949.3,247.8 949.3,248.9 950.5,248.9 952.9,248.9 1021.4,248.9 1021.4,247.8 953,247.8 949.3,247.8 	
		"/>
	<rect x="949.3" y="251.3" class="st2" width="72.1" height="1.2"/>
	<rect x="949.3" y="254.9" class="st2" width="72.1" height="1.2"/>
	<rect x="949.3" y="258.4" class="st2" width="72.1" height="1.2"/>
	<rect x="949.3" y="262" class="st2" width="72.1" height="1.2"/>
	<path class="st29" d="M911.5,173.6h23.6v-23.6h-23.6V173.6z M919.7,157.8l3.6-5.8l3.6,5.8l6.6,1.6l-4.4,5.2l0.5,6.8l-6.3-2.6
		l-6.3,2.6l0.5-6.8l-4.4-5.2L919.7,157.8z"/>
	<path class="st29" d="M953.3,157h68.2v1.2h-68.2l-0.2,2.4h68.4v1.2h-68.5l-0.2,2.3l-2.3-2.3h-1.2v-1.2h0l-5.6-5.6v28h84.8v-33.1
		h-74.7L953.3,157z M1021.4,176h-72.1v-1.2h72.1V176z M1021.4,172.4h-72.1v-1.2h72.1V172.4z M1021.4,168.9h-72.1v-1.2h72.1V168.9z
		 M1021.4,165.3h-72.1v-1.2h72.1V165.3z"/>
	<polygon class="st29" points="952.8,164 952.9,161.8 950.5,161.8 	"/>
	<polygon class="st29" points="953,160.6 953.2,158.2 949.3,158.2 949.3,157 953.3,157 953.8,149.9 943.7,149.9 938.7,149.9 
		943.7,155 949.3,160.6 	"/>
	<polygon class="st2" points="949.3,158.2 953.2,158.2 1021.4,158.2 1021.4,157 953.3,157 949.3,157 	"/>
	<polygon class="st2" points="949.3,160.6 949.3,161.8 950.5,161.8 952.9,161.8 1021.4,161.8 1021.4,160.6 953,160.6 949.3,160.6 	
		"/>
	<rect x="949.3" y="164.1" class="st2" width="72.1" height="1.2"/>
	<rect x="949.3" y="167.7" class="st2" width="72.1" height="1.2"/>
	<rect x="949.3" y="171.2" class="st2" width="72.1" height="1.2"/>
	<rect x="949.3" y="174.8" class="st2" width="72.1" height="1.2"/>
	<polygon class="st2" points="917,171.5 923.3,168.9 929.6,171.5 929.1,164.7 933.5,159.5 926.9,157.8 923.3,152 919.7,157.8 
		913.1,159.5 917.5,164.7 	"/>
	<polygon class="st2" points="917,215.1 923.3,212.5 929.6,215.1 929.1,208.3 933.5,203.1 926.9,201.4 923.3,195.6 919.7,201.4 
		913.1,203.1 917.5,208.3 	"/>
	<polygon class="st2" points="917,258.7 923.3,256.1 929.6,258.7 929.1,251.9 933.5,246.6 926.9,245 923.3,239.2 919.7,245 
		913.1,246.6 917.5,251.9 	"/>
</g>
<g>
	<path class="st27" d="M600,280h140V140H600V280z M601.2,141.3h137.5v137.5H601.2V141.3z"/>
	<path class="st28" d="M738.8,141.3H601.2v137.5h137.5V141.3z M643.9,260.2h-21.6v-59.9h21.6V260.2z M711.3,224
		c1.2,1.5,1.9,3.5,1.9,5.5c0,4.5-3.3,8.3-7.6,9c0.7,1.3,1,2.7,1,4.3c0,4.9-3.8,9-8.6,9.2v0.3H649v-52.3l11.3-18.2
		c0.5-0.8,1-1.6,1.2-2.5c0.2-0.9,0.3-1.8,0.2-2.7l-0.9-10.7c-0.6-6.1-0.2-5.3,2.9-6.1c5.1-1.3,18.1,4.1,13,30.8h30.9
		c5,0,9.1,4.2,9.1,9.2c0,3-1.4,5.7-3.6,7.3c2.8,1.6,4.6,4.6,4.6,8C717.7,219.4,715,222.9,711.3,224z"/>
	<rect x="622.3" y="200.3" class="st29" width="21.6" height="59.9"/>
	<path class="st29" d="M713.1,207.4c2.2-1.7,3.6-4.4,3.6-7.3c0-5-4.1-9.2-9.1-9.2h-30.9c5.1-26.7-7.8-32.1-13-30.8
		c-3.1,0.8-3.4-0.1-2.9,6.1l0.9,10.7c0.1,0.9,0,1.8-0.2,2.7c-0.2,0.9-0.7,1.7-1.2,2.5L649,200.1v52.3H698v-0.3
		c4.8-0.3,8.6-4.4,8.6-9.2c0-1.5-0.4-3-1-4.3c4.3-0.7,7.6-4.5,7.6-9c0-2.1-0.7-4-1.9-5.5c3.7-1.2,6.4-4.6,6.4-8.7
		C717.7,211.9,715.9,208.9,713.1,207.4z"/>
</g>
<g>
	<path class="st27" d="M450,280h140V140H450V280z M451.3,141.3h137.5v137.5H451.3V141.3z"/>
	<path class="st28" d="M507.1,189.9c0,0,0-0.1,0-0.1C507.1,189.8,507.1,189.8,507.1,189.9z"/>
	<path class="st28" d="M507.2,190.2C507.2,190.2,507.2,190.2,507.2,190.2C507.2,190.2,507.2,190.2,507.2,190.2z"/>
	<polygon class="st28" points="506.9,191.8 506.9,191.8 506.9,191.8 	"/>
	<path class="st28" d="M500.9,195.8c-1-0.2-1.5-1-2.4-1.4C499.4,194.7,500,195.6,500.9,195.8L500.9,195.8z"/>
	<path class="st28" d="M519.2,193c0.1,0,0.2,0,0.2,0C519.4,193,519.3,193,519.2,193z"/>
	<path class="st28" d="M498.1,194.3c0.1,0,0.3,0,0.4,0.1C498.4,194.3,498.2,194.3,498.1,194.3z"/>
	<path class="st28" d="M522.2,200.1C522.2,200.1,522.2,200.1,522.2,200.1C522.2,200.1,522.2,200.1,522.2,200.1
		C522.2,200.1,522.2,200.1,522.2,200.1z"/>
	<path class="st28" d="M497.4,194.3c0.2,0,0.4-0.1,0.6,0C497.8,194.2,497.6,194.2,497.4,194.3z"/>
	<path class="st28" d="M520.9,210.8c0-0.2,0-0.5,0.1-0.7C521,210.3,520.9,210.6,520.9,210.8z"/>
	<polygon class="st28" points="521.7,213.9 521.7,213.9 521.7,213.9 	"/>
	<path class="st28" d="M521.3,213.1c0-0.1-0.1-0.2-0.1-0.3C521.2,212.9,521.3,213,521.3,213.1z"/>
	<path class="st28" d="M503.5,203C503.5,203.1,503.5,203.1,503.5,203C503.5,203.1,503.5,203.1,503.5,203z"/>
	<path class="st28" d="M521.1,212.4c0-0.2-0.1-0.4-0.1-0.6C521,212,521,212.2,521.1,212.4z"/>
	<path class="st28" d="M517.1,194.2c-0.1-0.1-0.1-0.2-0.1-0.3C517,194,517,194.1,517.1,194.2z"/>
	<path class="st28" d="M520.9,211.6c0-0.2,0-0.5,0-0.7C520.9,211.2,520.9,211.4,520.9,211.6z"/>
	<polygon class="st28" points="518.1,192.9 518.1,192.9 518.1,192.9 	"/>
	<path class="st28" d="M519,193c0.1,0,0.1,0,0.1,0C519.1,193,519,193,519,193z"/>
	<path class="st28" d="M494.3,213.2c0.1,0.1,0.1,0.3,0.2,0.4C494.5,213.4,494.4,213.3,494.3,213.2z"/>
	<path class="st28" d="M510.6,220.6c0,0-0.1,0-0.1,0C510.5,220.6,510.5,220.6,510.6,220.6L510.6,220.6z"/>
	<path class="st28" d="M510.2,220.4c0.1,0.1,0.2,0.1,0.3,0.2C510.3,220.6,510.3,220.5,510.2,220.4z"/>
	<path class="st28" d="M494.7,214.1C494.7,214.1,494.7,214.2,494.7,214.1C494.7,214.2,494.7,214.1,494.7,214.1z"/>
	<polygon class="st28" points="501.7,204.8 501.7,204.8 501.7,204.8 	"/>
	<path class="st28" d="M503.7,203.8C503.7,203.8,503.7,203.8,503.7,203.8C503.7,203.8,503.7,203.8,503.7,203.8z"/>
	<path class="st28" d="M477.6,216.5C477.6,216.5,477.7,216.5,477.6,216.5C477.7,216.4,477.6,216.4,477.6,216.5z"/>
	<path class="st28" d="M588.8,141.3H451.3v137.5h137.5V141.3z M564.3,256.3c-9.3,0-16.9-7.6-16.9-16.9c0-0.6,0-1.2,0.1-1.8
		L520.1,225c-2.2,3.8-5.1,7.1-8.6,9.7c0,0,0,0,0,0c-0.3,0.3-0.7,0.5-1,0.7c-2.8,1.9-6,3.3-9.3,4.2c-0.1,0-0.3,0.1-0.4,0.1
		c-0.3,0.1-0.6,0.1-0.9,0.2c-0.3,0.1-0.6,0.1-1,0.2c-0.2,0-0.3,0.1-0.5,0.1c-7.6,1.3-15.5-0.3-22.1-4.4c-0.2-0.1-0.4-0.2-0.5-0.3
		c-0.1-0.1-0.3-0.2-0.4-0.3c-4-2.8-7.4-6.4-9.7-10.7c-0.1-0.2-0.2-0.4-0.3-0.5c-0.1-0.3-0.3-0.5-0.4-0.8c-0.2-0.5-0.5-0.9-0.7-1.4
		c0,0,0,0,0,0c-0.7-1.7-1.3-3.5-1.7-5.3c0,0,0,0,0,0c-0.1-0.5-0.2-1.1-0.3-1.6c0-0.1,0-0.2-0.1-0.3c-0.1-0.4-0.1-0.8-0.2-1.2
		c0-0.2-0.1-0.5-0.1-0.7c0-0.1,0-0.3,0-0.4c-0.1-0.9-0.1-1.9-0.1-2.9c0-13.1,8-24.3,19.4-29c0.5-0.2,0.9-0.4,1.4-0.5
		c0,0,0.1,0,0.2-0.1c0.5-0.2,1-0.3,1.6-0.5c0,0,0.1,0,0.1,0c0.5-0.2,1.1-0.3,1.6-0.4c0.1,0,0.1,0,0.2,0c0.5-0.1,1-0.2,1.5-0.3
		c0.1,0,0.2,0,0.4-0.1c0.4-0.1,0.7-0.1,1.1-0.2c0.2,0,0.5-0.1,0.7-0.1c0.1,0,0.3,0,0.4,0c1-0.1,1.9-0.1,2.9-0.1
		c5.3,0,10.2,1.3,14.6,3.6c0.2,0.1,0.5,0.3,0.7,0.4c0.1,0,0.1,0.1,0.2,0.1c2.2,1.3,4.3,2.8,6.1,4.5l21.5-14.3
		c-0.3-1-0.5-2.1-0.5-3.2c0-6.3,5.1-11.3,11.3-11.3c6.3,0,11.3,5.1,11.3,11.3c0,6.3-5.1,11.3-11.3,11.3c-2.5,0-4.9-0.8-6.8-2.3
		l-20.9,14c1.9,2.9,3.4,6.2,4.2,9.7c0.1,0.3,0.1,0.5,0.2,0.8c0.5,2.2,0.7,4.4,0.7,6.7c0,1.9-0.2,3.8-0.5,5.6l28.1,12.9
		c3.1-3.3,7.5-5.4,12.3-5.4c9.3,0,16.9,7.6,16.9,16.9C581.2,248.7,573.6,256.3,564.3,256.3z"/>
	<path class="st28" d="M465.6,202.4C465.6,202.4,465.6,202.4,465.6,202.4C465.6,202.4,465.6,202.4,465.6,202.4
		C465.6,202.4,465.6,202.4,465.6,202.4z"/>
	<path class="st28" d="M465.6,202.3C465.6,202.3,465.6,202.3,465.6,202.3C465.6,202.3,465.6,202.3,465.6,202.3z"/>
	<path class="st28" d="M494.6,213.8c0,0,0,0.1,0,0.1C494.6,213.9,494.6,213.8,494.6,213.8z"/>
	<path class="st28" d="M503.2,204.4c0,0-0.1,0-0.1,0.1C503.2,204.4,503.2,204.4,503.2,204.4z"/>
	<path class="st28" d="M503.7,204C503.6,204.1,503.6,204.1,503.7,204C503.6,204.1,503.6,204.1,503.7,204z"/>
	<path class="st28" d="M502.9,204.5c0,0-0.1,0-0.1,0C502.8,204.6,502.9,204.6,502.9,204.5z"/>
	<path class="st28" d="M503.5,204.2C503.5,204.3,503.4,204.3,503.5,204.2C503.4,204.3,503.5,204.3,503.5,204.2z"/>
	<path class="st28" d="M502.1,204.7C502.1,204.7,502.1,204.7,502.1,204.7C502.1,204.7,502.1,204.7,502.1,204.7z"/>
	<path class="st28" d="M502.5,204.6c0,0-0.1,0-0.1,0C502.5,204.7,502.5,204.7,502.5,204.6z"/>
	<path class="st29" d="M519.2,192.2l20.9-14c1.9,1.4,4.2,2.3,6.8,2.3c6.3,0,11.3-5.1,11.3-11.3c0-6.3-5.1-11.3-11.3-11.3
		c-6.3,0-11.3,5.1-11.3,11.3c0,1.1,0.2,2.2,0.5,3.2l-21.5,14.3C516.3,188.3,517.9,190.2,519.2,192.2z"/>
	<path class="st29" d="M564.3,222.5c-4.9,0-9.2,2.1-12.3,5.4l-28.1-12.9c-0.2,0.8-0.3,1.7-0.5,2.5c0-0.4-0.1-0.8-0.3-1.1
		c-0.5-0.7-1-1.5-1.4-2.4l0,0c0,0,0,0,0,0c-0.1-0.3-0.2-0.5-0.3-0.8c0-0.1-0.1-0.2-0.1-0.3c0-0.1-0.1-0.2-0.1-0.4
		c0-0.2-0.1-0.4-0.1-0.6c0-0.1,0-0.1,0-0.2c0-0.2,0-0.5,0-0.7c0,0,0-0.1,0-0.1c0-0.2,0-0.5,0.1-0.7c0.3-1.2,1.5-1.8,2-2.9
		c0.5-1.3-0.7-1.9-0.6-3.1c0-0.3,0.8-1.3,1.2-1.4c0,0,0,0,0,0c-0.1-0.3-0.1-0.5-0.2-0.8c-0.3-0.5-0.6-1-0.5-1.2
		c-1,0.7-1.7-1.3-1.2-1.8c0.1-0.1,0.2-0.2,0.3-0.2c0-0.1,0.1-0.2,0.3-0.2c-0.5-1.3-1-2.5-1.7-3.7c0,0,0,0,0,0.1
		c-0.9,1.3-2.9,0.4-3.6-0.6c-0.1-0.1-0.1-0.2-0.1-0.3c-0.5-1,0.3-1.1,1.2-1h0l0,0c0.3,0,0.6,0.1,0.8,0.1c0.1,0,0.1,0,0.1,0
		c0,0,0.1,0,0.1,0c0.1,0,0.2,0,0.2,0c0.1,0,0.2,0,0.3,0c-0.6-0.9-1.2-1.9-1.9-2.7c0.1,0.3,0.2,0.6,0.1,1c-0.2,1.1-2.2,1.1-3,1.3
		c-1.2,0.3-2.8,0.9-3.3,2.2c-0.2,0.5-0.1,1.1-0.6,1.5c-1.7,1.2-3.8-2.5-4.1-3.7c-0.1-0.3-0.1-0.5,0-0.8l0,0l0,0
		c0.1-0.6,0.3-1,0.3-1.5c0,0,0-0.1,0-0.1c0-0.1,0-0.2,0-0.3c0,0,0-0.1,0-0.1c0-0.1-0.1-0.3-0.2-0.4c-0.7-1.2-1.7-2.2-3.1-2.4
		c-0.9-0.1-1.3-0.1-1.7-1c-0.7-1.9,2-1.2,2-1.5c0-1.1,1.9-1,2.6-0.9c0.4,0,3.8,0.4,3.8,0.4c0.1-0.1,0.1-0.2,0.3-0.3
		c-0.8-0.5-1.6-1.1-2.4-1.5c-0.1,0-0.1-0.1-0.2-0.1c-0.2-0.1-0.5-0.3-0.7-0.4c-4.4-2.3-9.3-3.6-14.6-3.6c-1,0-1.9,0.1-2.9,0.1
		c-0.1,0-0.3,0-0.4,0c-0.2,0-0.5,0.1-0.7,0.1c-0.4,0-0.7,0.1-1.1,0.2c-0.1,0-0.2,0-0.4,0.1c-0.5,0.1-1,0.2-1.5,0.3
		c-0.1,0-0.1,0-0.2,0c-0.5,0.1-1.1,0.3-1.6,0.4c0,0-0.1,0-0.1,0c-0.5,0.2-1,0.3-1.6,0.5c-0.1,0-0.1,0-0.2,0.1
		c-0.5,0.2-0.9,0.3-1.4,0.5c-11.4,4.7-19.4,15.9-19.4,29c0,1,0.1,1.9,0.1,2.9c0,0.1,0,0.3,0,0.4c0,0.2,0.1,0.5,0.1,0.7
		c0.1,0.4,0.1,0.8,0.2,1.2c0,0.1,0,0.2,0.1,0.3c0.1,0.6,0.2,1.1,0.3,1.6c0,0,0,0,0,0c0.4,1.8,1,3.6,1.7,5.3c0,0,0,0,0,0
		c0.2,0.5,0.4,1,0.7,1.4c0.1,0.3,0.3,0.5,0.4,0.8c0.1,0.2,0.2,0.4,0.3,0.5c2.4,4.3,5.7,7.9,9.7,10.7c0.1,0.1,0.3,0.2,0.4,0.3
		c0.2,0.1,0.4,0.2,0.5,0.3c6.6,4.1,14.5,5.7,22.1,4.4c0.2,0,0.3-0.1,0.5-0.1c0.3-0.1,0.6-0.1,1-0.2c0.3-0.1,0.6-0.1,0.9-0.2
		c0.1,0,0.3-0.1,0.4-0.1c3.4-0.9,6.5-2.3,9.3-4.2c0.4-0.2,0.7-0.5,1-0.7c0,0,0,0,0,0c3.5-2.6,6.4-5.9,8.6-9.7l27.4,12.6
		c-0.1,0.6-0.1,1.2-0.1,1.8c0,9.3,7.6,16.9,16.9,16.9c9.3,0,16.9-7.6,16.9-16.9C581.2,230,573.6,222.5,564.3,222.5z M515.9,223.2
		c0,0.1-0.1,0.1-0.1,0.2c-0.7,1.2-0.5,2.7-1.4,3.8c-0.6,0.8-1.9,0.8-2.5,1.7c-0.3,0.5-0.2,1-0.4,1.5c-0.2,0.5-0.7,1-1.1,1.3
		c-0.3,0.3-0.7,0.6-1,0.9c-0.3,0.3-0.5,0.7-0.9,1c-0.4,0.2-0.8,0.2-1.1,0.5c-0.4,0.3-0.8,0.8-0.9,1.3c0,0.3,0,0.5,0.1,0.7
		c0.2,0.5,1.4,0.6,0.5,1.1c-0.7,0.4-2.3,0.4-3,0.2c-0.4-0.1-0.7-0.2-1-0.5c-0.1-0.1-0.4-1-0.4-1c-1.2-0.4-0.8-1.4-0.7-2.3
		c0-0.6-0.3-1.2-0.3-1.9c0-0.6,0.1-1.4-0.4-1.8c-0.6-0.6-1.5-0.3-2.2-0.4c-1.1-0.3-1.5-1.6-2.5-2c-1.1-0.5-1.5-0.6-1.6-1.9
		c0-0.9,0.4-1.4,0.8-2.1c0.3-0.5,0.8-1.3-0.1-1.4c-0.5-0.1-1,0.3-1.5,0.3c-0.6,0-1.1-0.3-1.7-0.6c-0.6-0.3-1.1-0.5-1.7-0.7
		c-0.7-0.1-1.3,0-2-0.1c-0.6-0.1-1.1-0.3-1.7-0.2c-1.2,0.2-2.9,0.4-4-0.3c-0.2-0.1-2.2-2.1-2.2-2.1c-1.5,2.4-4.2-2.3-5.2-3.3
		c-1.2-1.1-2.1-2.6-2.2-4.3c-0.1-1.2,1.3-3.8,0.8-4.9c-0.2-0.4-1-0.3-1.3-0.8c-1-1.6-0.5-5.2-3.2-5.4c-1,0-1.7,0.9-2.1,1.7
		c-0.2,0.4-2,5.3-2.8,4.1c-0.2-0.3,0.2-1.3,0.3-1.7c0.1-0.7,0.1-1.4,0-2.1c-0.1-1.5,0.2-2.8,0.4-4.3c0.3-3.2,1.6-5,3.8-7.4
		c0.7-0.8,1.3-0.7,2.2-0.4c1.1,0.3,2,0.4,3.1,0.8c1.9,0.7,3.9-1,5.9-0.7c1.4,0.2,2.6,0.7,4,0.7c1.4,0,2.8-0.2,4.2,0.1
		c1.7,0.3,1.6-0.2,2.3-1.5c0.9-1.6,1.1-0.3,2.1,0.5c0.8,0.7,1.1,0.2,2,0.1c1.7-0.3,1.9,1.4,0.8,2.4c-0.5,0.5-1.3,0.5-2,0.8
		c-0.5,0.2-0.8,0.5-1.1,0.9c-0.5,0.6-1.4,0.7-2,1.4c-0.5,0.6-2,0.9-1.8,1.8c0.2,1.2,2.4,1.4,3.2,1.6c0.6,0.2,1.2,0.6,1.8,0.6
		c1.5,0.1,1.6-1.4,1.6-2.5c0-1.3,0.3-2,1.8-2.3c0.2,0,0.4-0.1,0.6,0c0,0,0.1,0,0.1,0c0.1,0,0.3,0,0.4,0.1c0,0,0,0,0.1,0
		c0.8,0.3,1.4,1.2,2.4,1.4l0,0c0.1,0,0.2,0,0.3,0.1c0.8,0,1.4-0.1,2,0.5c0.7,0.6,1,1.6,1.8,2.2c0.4,0.3,1,0.5,1,1.1
		c0.1,1.8-2.8,1.4-3.7,1.9c-0.5,0.3-0.4,1.6,0.4,1.4c0.3-0.1,0.6,0,0.8,0.2c0,0,0,0,0,0c0.1,0.1,0.2,0.2,0.2,0.4c0,0.1,0,0.2,0,0.3
		c0,0,0,0.1,0,0.1c0,0.1,0,0.1-0.1,0.2c0,0,0,0.1-0.1,0.1c0,0-0.1,0.1-0.1,0.1c0,0-0.1,0-0.1,0.1c-0.1,0-0.1,0.1-0.2,0.1
		c0,0-0.1,0-0.1,0.1c-0.1,0-0.1,0.1-0.2,0.1c0,0-0.1,0-0.1,0c-0.1,0-0.2,0-0.3,0.1c0,0-0.1,0-0.1,0c-0.1,0-0.2,0-0.3,0.1
		c0,0,0,0-0.1,0c-0.1,0-0.3,0-0.4,0h0l0,0c-1,0.1-2.1,0.1-2.3,0.3c-0.4,0.5-0.1,1-0.8,1.5c-0.7,0.6-1.3,0.8-1.8,1.6
		c-0.4,0.6-0.5,1.4-1,2c-0.7,0.7-1.8,1.2-1.7,2.4c0,0.2,0.1,0.4,0.2,0.7c0.1,0.1,0.1,0.3,0.2,0.4c0,0.1,0.1,0.1,0.1,0.2
		c0,0,0,0.1,0,0.1c0,0.1,0,0.1,0.1,0.2c0,0,0,0.1,0,0.1c0,0.1,0,0.2,0,0.3c-0.4,1.4-1.4,0.5-2-0.1c-0.8-0.8-1.6-1.6-2.8-1
		c-0.4,0.2-0.3,0.5-0.6,0.8c-0.6,0.8-1.6,0-2.4,0.3c-1.6,0.7-1.7,5,0.8,4c0.2-0.1,0.7-0.2,0.8-0.5c0.2-1.3,1.4-1.5,2.5-1.9
		c0.1-0.1,0.4,0,0.5,0.1c0.3,0.4,0.3,0.8,0,1.2c-0.3,0.4-0.3,0.6-0.4,1.1c-0.1,0.2-0.3,0.3-0.3,0.4c0.4,0.6,1.5-0.7,2.2-0.4
		c0.5,0.3,0.6,0.9,0.7,1.4c0.2,0.6,0.4,0.8,0.9,0.7c0.1,0,2.2-0.1,1.8-0.2c-1-0.4,1.3-1.6,2.3-1.8c0.9-0.2,1.8,0.1,2.7,0
		c0.8-0.1,1.5-0.6,2.4-0.6c0.9,0,1.7,0.8,2.6,0.9c0.7,0.1,1.5-0.1,2.2,0.1c0.8,0.2,1,1,1.6,1.4c0.1,0.1,0.2,0.1,0.3,0.2
		c0,0,0.1,0,0.1,0l0,0c0.9,0.3,1.9-0.2,2.8-0.3c1,0,2.6-0.1,3.1,1C516.8,222.1,516.3,222.7,515.9,223.2z"/>
	<path class="st2" d="M513.4,220.4c-0.9,0-1.9,0.5-2.8,0.3c0,0-0.1,0-0.1,0c-0.1,0-0.2-0.1-0.3-0.2c-0.6-0.4-0.8-1.2-1.6-1.4
		c-0.7-0.2-1.5,0-2.2-0.1c-0.9-0.1-1.7-0.8-2.6-0.9c-0.8,0-1.5,0.5-2.4,0.6c-0.9,0.1-1.8-0.2-2.7,0c-1,0.3-3.2,1.4-2.3,1.8
		c0.3,0.1-1.7,0.2-1.8,0.2c-0.6,0.1-0.8-0.1-0.9-0.7c-0.2-0.5-0.2-1.2-0.7-1.4c-0.7-0.4-1.8,1-2.2,0.4c-0.1-0.1,0.2-0.2,0.3-0.4
		c0.1-0.5,0.1-0.7,0.4-1.1c0.3-0.4,0.3-0.8,0-1.2c-0.1-0.1-0.3-0.2-0.5-0.1c-1.1,0.4-2.3,0.6-2.5,1.9c0,0.3-0.5,0.4-0.8,0.5
		c-2.4,1-2.3-3.3-0.8-4c0.8-0.4,1.7,0.5,2.4-0.3c0.2-0.3,0.2-0.6,0.6-0.8c1.2-0.6,2,0.2,2.8,1c0.6,0.6,1.6,1.5,2,0.1
		c0-0.1,0-0.2,0-0.3c0,0,0-0.1,0-0.1c0-0.1,0-0.1-0.1-0.2c0,0,0-0.1,0-0.1c0-0.1-0.1-0.1-0.1-0.2c-0.1-0.1-0.1-0.3-0.2-0.4
		c-0.1-0.2-0.2-0.4-0.2-0.7c-0.1-1.2,1-1.6,1.7-2.4c0.5-0.6,0.6-1.4,1-2c0.6-0.8,1.1-1,1.8-1.6c0.7-0.5,0.4-0.9,0.8-1.5
		c0.2-0.2,1.2-0.2,2.3-0.3h0c0.1,0,0.3,0,0.4,0c0,0,0,0,0.1,0c0.1,0,0.2,0,0.3-0.1c0,0,0.1,0,0.1,0c0.1,0,0.2,0,0.3-0.1
		c0,0,0.1,0,0.1,0c0.1,0,0.1-0.1,0.2-0.1c0,0,0.1,0,0.1-0.1c0.1,0,0.1-0.1,0.2-0.1c0,0,0.1,0,0.1-0.1c0,0,0.1-0.1,0.1-0.1
		c0,0,0-0.1,0.1-0.1c0-0.1,0-0.1,0.1-0.2c0,0,0-0.1,0-0.1c0-0.1,0-0.2,0-0.3c0-0.2-0.1-0.3-0.2-0.4c0,0,0,0,0,0
		c-0.2-0.2-0.5-0.3-0.8-0.2c-0.7,0.2-0.9-1.1-0.4-1.4c1-0.5,3.9-0.1,3.7-1.9c0-0.6-0.6-0.8-1-1.1c-0.8-0.6-1-1.6-1.8-2.2
		c-0.6-0.5-1.2-0.4-2-0.5c-0.1,0-0.2,0-0.3-0.1c-1-0.2-1.5-1-2.4-1.4c0,0,0,0-0.1,0c-0.1,0-0.3-0.1-0.4-0.1c0,0-0.1,0-0.1,0
		c-0.2,0-0.4,0-0.6,0c-1.4,0.3-1.7,1-1.8,2.3c0,1.1-0.1,2.7-1.6,2.5c-0.6,0-1.2-0.5-1.8-0.6c-0.8-0.2-3-0.4-3.2-1.6
		c-0.1-0.9,1.3-1.2,1.8-1.8c0.6-0.7,1.5-0.8,2-1.4c0.3-0.4,0.6-0.6,1.1-0.9c0.6-0.3,1.4-0.4,2-0.8c1.1-1,0.9-2.7-0.8-2.4
		c-0.9,0.2-1.2,0.6-2-0.1c-0.9-0.8-1.2-2.2-2.1-0.5c-0.7,1.3-0.7,1.9-2.3,1.5c-1.4-0.3-2.8-0.1-4.2-0.1c-1.4,0-2.6-0.5-4-0.7
		c-2-0.3-4,1.4-5.9,0.7c-1.1-0.4-2-0.5-3.1-0.8c-0.9-0.3-1.4-0.4-2.2,0.4c-2.2,2.3-3.5,4.1-3.8,7.4c-0.1,1.5-0.5,2.8-0.4,4.3
		c0.1,0.7,0.1,1.4,0,2.1c-0.1,0.3-0.5,1.4-0.3,1.7c0.8,1.2,2.6-3.7,2.8-4.1c0.3-0.8,1.1-1.7,2.1-1.7c2.7,0.1,2.2,3.8,3.2,5.4
		c0.3,0.4,1,0.3,1.3,0.8c0.5,1-0.9,3.6-0.8,4.9c0.1,1.7,1,3.2,2.2,4.3c1.1,1,3.7,5.7,5.2,3.3c0,0,2,2,2.2,2.1c1.1,0.6,2.8,0.5,4,0.3
		c0.6-0.1,1.1,0.1,1.7,0.2c0.7,0.1,1.3,0,2,0.1c0.6,0.1,1.2,0.4,1.7,0.7c0.5,0.3,1.1,0.5,1.7,0.6c0.5,0,1.1-0.3,1.5-0.3
		c0.9,0.1,0.4,1,0.1,1.4c-0.4,0.7-0.8,1.2-0.8,2.1c0.1,1.3,0.5,1.4,1.6,1.9c1,0.5,1.4,1.7,2.5,2c0.7,0.2,1.7-0.1,2.2,0.4
		c0.5,0.5,0.4,1.2,0.4,1.8c0,0.6,0.3,1.3,0.3,1.9c-0.1,0.9-0.5,1.9,0.7,2.3c0,0,0.3,0.9,0.4,1c0.3,0.3,0.6,0.4,1,0.5
		c0.8,0.2,2.3,0.2,3-0.2c0.8-0.5-0.3-0.6-0.5-1.1c-0.1-0.2-0.1-0.5-0.1-0.7c0-0.5,0.4-1,0.9-1.3c0.3-0.3,0.8-0.3,1.1-0.5
		c0.4-0.2,0.6-0.6,0.9-1c0.3-0.4,0.7-0.6,1-0.9c0.4-0.4,0.9-0.8,1.1-1.3c0.2-0.5,0.1-1.1,0.4-1.5c0.6-0.9,1.9-0.9,2.5-1.7
		c0.9-1,0.7-2.6,1.4-3.8c0-0.1,0.1-0.1,0.1-0.2c0.4-0.6,0.9-1.1,0.5-1.9C515.9,220.3,514.4,220.3,513.4,220.4z M465.6,202.4
		C465.6,202.4,465.6,202.4,465.6,202.4C465.6,202.3,465.6,202.3,465.6,202.4C465.6,202.3,465.6,202.3,465.6,202.4
		C465.6,202.4,465.6,202.4,465.6,202.4C465.6,202.4,465.6,202.4,465.6,202.4z M477.6,216.5C477.6,216.4,477.7,216.4,477.6,216.5
		C477.7,216.5,477.6,216.5,477.6,216.5z"/>
	<path class="st2" d="M522.3,204.1c-0.1,1.2,1.1,1.7,0.6,3.1c-0.4,1.1-1.7,1.8-2,2.9c-0.1,0.2-0.1,0.5-0.1,0.7c0,0,0,0.1,0,0.1
		c0,0.2,0,0.4,0,0.7c0,0.1,0,0.1,0,0.2c0,0.2,0.1,0.4,0.1,0.6c0,0.1,0.1,0.2,0.1,0.4c0,0.1,0.1,0.2,0.1,0.3c0.1,0.3,0.2,0.6,0.3,0.8
		c0,0,0,0,0,0c0.4,0.9,0.9,1.7,1.4,2.4c0.2,0.3,0.3,0.7,0.3,1.1c0.2-0.8,0.4-1.7,0.5-2.5c0.3-1.8,0.5-3.7,0.5-5.6
		c0-2.3-0.3-4.6-0.7-6.7c0,0,0,0,0,0C523.2,202.8,522.4,203.8,522.3,204.1z"/>
	<path class="st2" d="M510.6,183.9c0,0-3.4-0.4-3.8-0.4c-0.7,0-2.6-0.2-2.6,0.9c0,0.3-2.7-0.4-2,1.5c0.3,0.9,0.8,0.8,1.7,1
		c1.3,0.2,2.4,1.2,3.1,2.4c0.1,0.2,0.1,0.3,0.2,0.4c0,0,0,0.1,0,0.1c0,0.1,0,0.2,0,0.3c0,0,0,0.1,0,0.1c0,0.5-0.2,1-0.3,1.5l0,0
		c0,0.2,0,0.5,0,0.8c0.3,1.2,2.4,4.9,4.1,3.7c0.5-0.4,0.4-1,0.6-1.5c0.5-1.3,2.1-1.8,3.3-2.2c0.8-0.2,2.8-0.2,3-1.3
		c0.1-0.4,0-0.7-0.1-1c0.7,0.9,1.3,1.8,1.9,2.7c-0.1,0-0.2,0-0.3,0c-0.1,0-0.1,0-0.2,0c0,0-0.1,0-0.1,0c0,0-0.1,0-0.1,0
		c-0.2,0-0.5-0.1-0.8-0.1l0,0c-0.9-0.1-1.7,0-1.2,1c0,0.1,0.1,0.2,0.1,0.3c0.7,1.1,2.7,1.9,3.6,0.6c0,0,0,0,0-0.1
		c0.6,1.2,1.2,2.4,1.7,3.7c-0.1,0-0.2,0.1-0.3,0.2c-0.1,0-0.2,0.1-0.3,0.2c-0.5,0.5,0.2,2.5,1.2,1.8c-0.1,0.2,0.2,0.8,0.5,1.2
		c-0.9-3.5-2.3-6.8-4.2-9.7c-1.3-2-2.9-3.9-4.6-5.5c-1.8-1.7-3.9-3.3-6.1-4.5c0.8,0.5,1.6,1,2.4,1.5
		C510.8,183.7,510.7,183.8,510.6,183.9z M522.2,200.1C522.2,200.1,522.2,200.1,522.2,200.1C522.2,200.1,522.2,200.1,522.2,200.1
		C522.2,200.1,522.2,200.1,522.2,200.1z"/>
</g>
<g>
	<circle class="st30" cx="700" cy="20.1" r="20"/>
	<g>
		<path class="st5" d="M714.5,16.3c0,1.4-1.5,2.3-2.8,1.6c-0.8-0.5-1.7-0.9-2.6-1.3c-1.8-0.7-3.7-1.2-5.6-1.5
			c-1.3-0.2-2.7-0.4-4-0.5c-1.4-0.1-2.8-0.1-4.2,0c-1.6,0.1-3.2,0.3-4.8,0.6c-0.6,0.1-1.2,0.3-1.7,0.4c-0.4,0.1-0.7,0.1-1,0
			c-0.8-0.2-1.3-0.9-1.3-1.7c0-0.8,0.5-1.5,1.2-1.8c0.6-0.2,1.1-0.3,1.7-0.5c1.4-0.3,2.8-0.5,4.3-0.7c1.5-0.1,3.1-0.2,4.6-0.1
			c3.8,0.1,7.5,0.7,11.1,1.9c1.5,0.5,2.9,1.1,4.2,1.9c0.5,0.3,0.8,0.7,0.9,1.2C714.5,16,714.5,16.1,714.5,16.3z"/>
		<path class="st5" d="M696.7,20.7c-2.2,0-4.6,0.3-6.8,1c-0.4,0.1-0.7,0.1-1.1,0c-0.6-0.2-1-0.8-0.9-1.4c0-0.6,0.4-1.2,1-1.4
			c0.6-0.2,1.3-0.4,1.9-0.5c1.6-0.4,3.2-0.5,4.8-0.6c3.5-0.1,6.9,0.3,10.3,1.4c1.7,0.5,3.3,1.3,4.8,2.2c0.1,0,0.2,0.1,0.2,0.1
			c0.8,0.5,0.9,1.5,0.5,2.1c-0.4,0.7-1.3,0.9-2.1,0.5c-0.4-0.2-0.8-0.5-1.3-0.7c-2-1-4.1-1.7-6.3-2.1
			C700.2,20.8,698.5,20.7,696.7,20.7z"/>
		<path class="st5" d="M697,24c2.6,0,5.1,0.4,7.6,1.2c1.4,0.5,2.6,1,3.9,1.8c0.1,0.1,0.2,0.1,0.3,0.2c0.5,0.4,0.6,1.1,0.3,1.6
			c-0.3,0.5-1,0.7-1.5,0.5c-0.1,0-0.2-0.1-0.3-0.2c-2.1-1.2-4.3-2-6.7-2.4c-1.5-0.2-2.9-0.3-4.4-0.2c-1.9,0.1-3.8,0.3-5.7,0.8
			c-0.2,0-0.4,0.1-0.6,0.1c-0.6,0-1.1-0.4-1.2-1c-0.1-0.6,0.2-1.1,0.7-1.4c0.1,0,0.2-0.1,0.4-0.1c1.5-0.3,3.1-0.6,4.6-0.7
			C695.3,24.1,696.1,24,697,24z"/>
	</g>
</g>
<g>
	<circle class="st31" cx="740" cy="20" r="20"/>
	<circle class="st32" cx="734" cy="20" r="5.3"/>
	<circle class="st33" cx="746" cy="20" r="5.3"/>
</g>
<g>
	<path class="st34" d="M790.9,32.9c0.3-0.1,0.4-0.1,0.6-0.3c0.5-0.3,0.9-0.9,0.9-1.5c0-0.1,0-22.4-0.1-22.5
		c-0.2-0.7-0.8-1.3-1.5-1.5c-0.2-0.1-5.4-0.1-5.5,0c-1,0.1-1.7,0.9-1.8,1.9c0,0.1,0,24.1,0,24.1"/>
	<path class="st35" d="M783.6,15.7c-1.2,0-7,0-7.1,0c-1,0.1-1.7,0.6-1.8,1.3c0,0.1,0,3.2,0,7.1c-4.3,0-6.4,0-6.5,0.1
		c-0.7,0.2-1.3,0.8-1.5,1.5c-0.1,0.2-0.1,5.4,0,5.5c0.1,1,0.9,1.7,1.9,1.8c0.1,0,14.4,0,15.1,0C783.6,33,783.6,15.8,783.6,15.7z"/>
</g>
<g>
	<path class="st2" d="M790.9,72.9c0.3-0.1,0.4-0.1,0.6-0.3c0.5-0.3,0.9-0.9,0.9-1.5c0-0.1,0-22.4-0.1-22.5c-0.2-0.7-0.8-1.3-1.5-1.5
		c-0.2-0.1-5.4-0.1-5.5,0c-1,0.1-1.7,0.9-1.8,1.9c0,0.1,0,24.1,0,24.1"/>
	<path class="st2" d="M783.6,55.7c-1.2,0-7,0-7.1,0c-1,0.1-1.7,0.6-1.8,1.3c0,0.1,0,3.2,0,7.1c-4.3,0-6.4,0-6.5,0.1
		c-0.7,0.2-1.3,0.8-1.5,1.5c-0.1,0.2-0.1,5.4,0,5.5c0.1,1,0.9,1.7,1.9,1.8c0.1,0,14.4,0,15.1,0C783.6,73,783.6,55.8,783.6,55.7z"/>
</g>
<g>
	<circle class="st36" cx="820" cy="20" r="20"/>
	<path class="st2" d="M829.5,10.4c-2.5-2.6-5.9-3.9-9.4-3.9c-7.4,0-13.4,6.1-13.4,13.4c0,2.3,0.7,4.6,1.8,6.6l-1.9,6.9l7.1-1.8
		c2,1.1,4.2,1.6,6.3,1.6l0,0c7.4,0,13.4-6.1,13.4-13.4C833.4,16.3,832,12.9,829.5,10.4z M820.1,31L820.1,31c-2,0-3.9-0.5-5.6-1.5
		l-0.4-0.2l-4.2,1.1l1.1-4.2l-0.3-0.4c-3.2-5.2-1.7-12,3.6-15.3c5.3-3.2,12-1.7,15.3,3.6s1.7,12-3.6,15.3
		C824.2,30.4,822.2,31,820.1,31z M826.5,22.9l-0.8-0.4c0,0-1.2-0.5-1.9-0.9c-0.1,0-0.1-0.1-0.2-0.1c-0.2,0-0.4,0.1-0.5,0.1l0,0
		c0,0-0.1,0.1-1.1,1.2c-0.1,0.1-0.2,0.2-0.4,0.2h-0.1c-0.1,0-0.2-0.1-0.3-0.1l-0.4-0.1l0,0c-0.8-0.4-1.5-0.8-2.1-1.4
		c-0.1-0.1-0.4-0.3-0.5-0.4c-0.5-0.5-1-1.1-1.4-1.8l-0.1-0.1c-0.1-0.1-0.1-0.1-0.1-0.3c0-0.1,0-0.3,0.1-0.4c0,0,0.3-0.4,0.5-0.6
		c0.1-0.1,0.2-0.4,0.4-0.5c0.1-0.2,0.2-0.5,0.1-0.7c-0.1-0.4-0.9-2.3-1.2-2.8c-0.1-0.2-0.3-0.3-0.5-0.4h-0.2c-0.1,0-0.4,0-0.6,0
		c-0.1,0-0.3,0.1-0.4,0.1l-0.1,0.1c-0.1,0.1-0.3,0.2-0.4,0.3c-0.1,0.1-0.2,0.3-0.4,0.4c-0.5,0.7-0.8,1.5-0.8,2.3l0,0
		c0,0.6,0.1,1.2,0.4,1.7l0.1,0.2c0.7,1.4,1.5,2.6,2.7,3.7l0.3,0.3c0.2,0.2,0.4,0.4,0.6,0.6c1.5,1.3,3.3,2.3,5.3,2.8
		c0.2,0.1,0.5,0.1,0.7,0.1l0,0c0.2,0,0.5,0,0.7,0c0.4,0,0.8-0.1,1.1-0.3c0.2-0.1,0.4-0.1,0.5-0.3l0.1-0.1c0.1-0.1,0.3-0.2,0.4-0.4
		s0.3-0.3,0.4-0.4c0.1-0.3,0.2-0.7,0.3-1c0-0.1,0-0.4,0-0.5C826.8,23.1,826.7,23,826.5,22.9z"/>
</g>
<g transform="matrix(3.468208 0 0 3.468208 0 -.00001)">
	
		<linearGradient id="SVGID_1_" gradientUnits="userSpaceOnUse" x1="112.7161" y1="163.5579" x2="109.8327" y2="156.8306" gradientTransform="matrix(3.4682 0 0 -3.4682 -141.2658 569.0759)">
		<stop  offset="0" style="stop-color:#37AEE2"/>
		<stop  offset="1" style="stop-color:#1E96C8"/>
	</linearGradient>
	<circle class="st37" cx="248" cy="5.8" r="5.8"/>
	<path class="st2" d="M244.6,5.7l3.9-1.6c0.4-0.2,1.7-0.7,1.7-0.7s0.6-0.2,0.6,0.3c0,0.2-0.2,1.1-0.3,1.9L250,8.3c0,0,0,0.4-0.3,0.5
		c-0.3,0.1-0.8-0.2-0.8-0.3c-0.1-0.1-1.2-0.8-1.7-1.2c-0.1-0.1-0.2-0.3,0-0.5c0.6-0.5,1.3-1.2,1.8-1.7c0.2-0.2,0.4-0.7-0.4-0.1
		l-2.4,1.6c0,0-0.3,0.2-0.8,0c-0.5-0.2-1.1-0.3-1.1-0.3S243.9,6,244.6,5.7L244.6,5.7z"/>
</g>
</svg>
